# Mesh "car_interior_light" exported with UABE; 100 vertices, 324 indices, 384 bits per vertex
g car_interior_light
# SubMesh 0
# Vertices
v 0.034842 -0.026716 0.008817
vt 0.164825 0.650683
vn 0.35872304 -0.9291275 0.0896655
v -0.036992 -0.02753 -0.009309
vt 0.194941 0.537247
vn -0.39391074 -0.9150559 0.08664389
v -0.035447 -0.02638 0.008817
vt 0.16644 0.539258
vn -0.36973915 -0.92524815 0.084904194
v 0.036992 -0.02753 -0.009309
vt 0.193121 0.654527
vn 0.3999501 -0.91178244 0.09323522
v -0.040605 -0.021222 0.008817
vt 0.164825 0.531048
vn -0.92576957 -0.36488762 0.09903482
v -0.041744 -0.022779 -0.009309
vt 0.193453 0.529684
vn -0.91542685 -0.38988423 0.099920236
v 0.040605 0.021492 0.008817
vt 0.224989 0.53234
vn 0.9249799 0.36827675 0.09372487
v 0.041744 -0.022779 -0.009309
vt 0.194941 0.601893
vn 0.91531175 -0.38878852 0.10510931
v 0.04 -0.021558 0.008817
vt 0.223687 0.60058
vn 0.919977 -0.3777692 0.10455949
v 0.041744 0.022779 -0.009309
vt 0.196521 0.529684
vn 0.9172041 0.38714048 0.0941223
v 0.034842 -0.026716 0.008817
vt 0.225141 0.608807
vn 0.35872304 -0.9291275 0.0896655
v 0.036992 -0.02753 -0.009309
vt 0.19628 0.609472
vn 0.3999501 -0.91178244 0.09323522
v 0.032389 -0.022576 0.011498
vt 0.101615 0.645417
vn 0.16877191 -0.48031324 0.8607062
v -0.035447 -0.02638 0.008817
vt 0.108316 0.537903
vn -0.21940184 -0.44814253 0.86662054
v -0.032381 -0.022853 0.011498
vt 0.102572 0.542734
vn -0.15436694 -0.48922545 0.85838765
v 0.034842 -0.026716 0.008817
vt 0.108286 0.64934
vn 0.19819193 -0.4618171 0.864549
v 0.04 -0.021558 0.008817
vt 0.100071 0.657476
vn 0.44839308 -0.22004588 0.86632764
v 0.036465 -0.0185 0.011498
vt 0.095124 0.651846
vn 0.48855075 -0.1570211 0.85829043
v 0.036467 0.019036 0.011498
vt 0.035643 0.65155
vn 0.48033905 0.16638976 0.8611555
v 0.040605 0.021492 0.008817
vt 0.031849 0.658091
vn 0.46129915 0.19712414 0.86506945
v 0.035447 0.02665 0.008817
vt 0.023717 0.649873
vn 0.21918786 0.44783664 0.86683273
v 0.032386 0.023117 0.011498
vt 0.029209 0.645048
vn 0.1544567 0.48851776 0.8587744
v -0.032404 0.022829 0.011498
vt 0.030182 0.542332
vn -0.16913679 0.4794854 0.8610961
v -0.034842 0.026985 0.008817
vt 0.023747 0.538435
vn -0.19767359 0.46163514 0.86476475
v -0.04 0.021827 0.008817
vt 0.031961 0.530299
vn -0.448518 0.21952844 0.8663942
v -0.036449 0.018785 0.011498
vt 0.036624 0.535952
vn -0.4879949 0.15747677 0.85852313
v -0.036472 -0.018762 0.011498
vt 0.096121 0.536215
vn -0.48012865 -0.16617724 0.8613139
v -0.040605 -0.021222 0.008817
vt 0.100184 0.529684
vn -0.46092665 -0.19724353 0.86524075
v -0.034842 0.026985 0.008817
vt 0.108652 0.718885
vn -0.35789612 0.9306764 0.075839676
v 0.036992 0.02753 -0.009309
vt 0.138344 0.605355
vn 0.39564767 0.915477 0.07324548
v 0.035447 0.02665 0.008817
vt 0.109918 0.607456
vn 0.36891276 0.9267376 0.07113961
v -0.036992 0.02753 -0.009309
vt 0.136895 0.72264
vn -0.40172002 0.91227037 0.07989843
v 0.040605 0.021492 0.008817
vt 0.108316 0.599255
vn 0.9249799 0.36827675 0.09372487
v 0.041744 0.022779 -0.009309
vt 0.136869 0.597801
vn 0.9172041 0.38714048 0.0941223
v -0.040605 -0.021222 0.008817
vt 0.224978 0.612554
vn -0.92576957 -0.36488762 0.09903482
v -0.041744 0.022779 -0.009309
vt 0.194941 0.68168
vn -0.91708916 0.3861235 0.09927757
v -0.04 0.021827 0.008817
vt 0.223678 0.680794
vn -0.91919935 0.38112026 0.09909493
v -0.041744 -0.022779 -0.009309
vt 0.196519 0.609472
vn -0.91542685 -0.38988423 0.099920236
v -0.034842 0.026985 0.008817
vt 0.225132 0.68902
vn -0.35789612 0.9306764 0.075839676
v -0.036992 0.02753 -0.009309
vt 0.19628 0.689258
vn -0.40172002 0.91227037 0.07989843
v -0.036449 0.018785 0.011498
vt 0.036624 0.535952
vn 0.4506196 -0.2020082 0.86956
v -0.030306 0.019545 0.009309
vt 0.035477 0.545687
vn 0.16648088 -0.46294197 0.8706141
v -0.033165 0.016686 0.009309
vt 0.04003 0.541177
vn 0.47134164 -0.16608657 0.86617106
v -0.032404 0.022829 0.011498
vt 0.030182 0.542332
vn 0.2020052 -0.44386816 0.87302625
v -0.03319 -0.016661 0.009309
vt 0.092873 0.541404
vn 0.47142845 0.16556607 0.8662234
v -0.036472 -0.018762 0.011498
vt 0.096121 0.536215
vn 0.45055178 0.20182203 0.86963844
v -0.032381 -0.022853 0.011498
vt 0.102572 0.542734
vn 0.20191689 0.45846358 0.86547136
v -0.030281 -0.01957 0.009309
vt 0.097459 0.546038
vn 0.16532154 0.48125446 0.8608501
v 0.032386 0.023117 0.011498
vt 0.029209 0.645048
vn -0.1908366 -0.4379811 0.87849534
v 0.030269 0.019581 0.009309
vt 0.034935 0.64172
vn -0.1609578 -0.45561978 0.8755017
v 0.033201 0.01665 0.009309
vt 0.039557 0.646391
vn -0.46926156 -0.1547318 0.86939734
v 0.036467 0.019036 0.011498
vt 0.035643 0.65155
vn -0.43883425 -0.20215856 0.8755321
v 0.036465 -0.0185 0.011498
vt 0.095124 0.651846
vn -0.4634094 0.20249747 0.8626972
v 0.033193 -0.016658 0.009309
vt 0.092337 0.646644
vn -0.47659162 0.17722641 0.8610756
v 0.030278 -0.019573 0.009309
vt 0.09698 0.642046
vn -0.1697769 0.48964593 0.8552324
v 0.032389 -0.022576 0.011498
vt 0.101615 0.645417
vn -0.21528107 0.46385837 0.85935414
v -0.030281 -0.01957 0.009309
vt 0.2794 0.55398
vn -0 0 1
v -0.033165 0.016686 0.009309
vt 0.269981 0.671877
vn -0 0 1
v -0.030306 0.019545 0.009309
vt 0.279275 0.681178
vn -0 0 1
v -0.03319 -0.016661 0.009309
vt 0.269937 0.563436
vn -0 0 1
v -0.014921 -0.01857 0.009309
vt 0.329348 0.55725
vn -0 0 1
v -0.014937 0.018562 0.009309
vt 0.329254 0.677999
vn -0 0 1
v 0.030269 0.019581 0.009309
vt 0.476264 0.681366
vn -0 0 1
v 0.029855 0.018579 0.009309
vt 0.474917 0.678108
vn -0 0 1
v 0.033201 0.01665 0.009309
vt 0.485801 0.671836
vn -0 0 1
v 0.033193 -0.016658 0.009309
vt 0.485812 0.563521
vn -0 0 1
v 0.029863 -0.018571 0.009309
vt 0.474985 0.557295
vn -0 0 1
v 0.030278 -0.019573 0.009309
vt 0.476336 0.554038
vn -0 0 1
v 0.02819 -0.017092 0.012449
vt 0.912854 0.422024
vn 0.23310299 -0.24277747 0.9416592
v -0.013264 0.017084 0.012449
vt 0.885128 0.4401
vn -0.23319973 0.24272183 0.94164956
v 0.028182 0.0171 0.012449
vt 0.912607 0.440075
vn 0.2330162 0.2429045 0.9416479
v -0.013249 -0.017091 0.012449
vt 0.885389 0.422308
vn -0.23307392 -0.24290106 0.94163454
v 0.02891 -0.017784 0.011934
vt 0.913534 0.421501
vn 0.5408343 -0.56103814 0.6266854
v 0.028903 0.017792 0.011944
vt 0.913229 0.440573
vn 0.5407947 0.5613948 0.6264001
v 0.029863 -0.018571 0.009309
vt 0.915514 0.419994
vn 0.64948744 -0.63117564 0.42400867
v -0.014921 -0.01857 0.009309
vt 0.88254 0.420136
vn -0.64930254 -0.6314486 0.42388546
v -0.013969 -0.017783 0.011944
vt 0.884791 0.421849
vn -0.54092944 -0.5613165 0.6263538
v -0.014937 0.018562 0.009309
vt 0.882515 0.442064
vn -0.6497549 0.6309855 0.4238819
v -0.013984 0.017776 0.011934
vt 0.884472 0.440583
vn -0.5410431 0.5609111 0.6266188
v 0.029855 0.018579 0.009309
vt 0.915514 0.442319
vn 0.6492379 0.6314756 0.42394412
v -0.017332 -0.00928 0.008714
vt 0.537153 0.797874
vn 0.8726935 -0.40031892 0.2795549
v -0.018273 0.007668 0.013919
vt 0.649271 0.830052
vn 0.8115636 0.28690994 0.50896686
v -0.017344 0.009272 0.008714
vt 0.680312 0.797874
vn 0.872269 0.40132734 0.2794337
v -0.018263 -0.007676 0.013919
vt 0.569995 0.826637
vn 0.81188697 -0.28589848 0.50902015
v -0.019042 0.007498 0.014562
vt 0.647635 0.83555
vn 0.29582408 0.26805145 0.9168623
v -0.018941 0.008345 0.013937
vt 0.653661 0.834233
vn 0.30656743 0.76997405 0.55960375
v -0.019032 -0.007507 0.014562
vt 0.571642 0.832278
vn 0.2960676 -0.26768464 0.91689086
v -0.027195 0.007492 0.014562
vt 0.646362 0.877192
vn -0.29628047 0.26756188 0.916858
v -0.02718 -0.007506 0.014562
vt 0.573727 0.873425
vn -0.29597157 -0.26804683 0.916816
v -0.01893 -0.008354 0.013937
vt 0.565668 0.831031
vn 0.30723917 -0.76963913 0.55969596
v -0.027964 0.00766 0.013919
vt 0.648013 0.882804
vn -0.81207776 0.28556544 0.5089029
v -0.027298 0.008338 0.013937
vt 0.652196 0.878395
vn -0.30784896 0.7694851 0.5595728
v -0.018008 0.009955 0.008714
vt 0.687087 0.803896
vn 0.37461942 0.86511904 0.33351046
v -0.028233 0.009946 0.008714
vt 0.691911 0.904385
vn -0.37600127 0.8645283 0.33348748
v -0.027949 -0.007675 0.013919
vt 0.572069 0.878811
vn -0.8116403 -0.28694603 0.508824
v -0.027282 -0.008353 0.013937
vt 0.567942 0.874657
vn -0.30705628 -0.76982284 0.5595437
v -0.028213 -0.009963 0.008714
vt 0.529297 0.903918
vn -0.37504378 -0.8649598 0.33344683
v -0.017995 -0.009963 0.008714
vt 0.531062 0.804147
vn 0.37535465 -0.8647288 0.33369607
v -0.028877 -0.009279 0.008714
vt 0.536192 0.911073
vn -0.8723102 -0.4013628 0.27925402
v -0.028896 0.009263 0.008714
vt 0.68569 0.911754
vn -0.87295294 0.39989868 0.27934617
# Faces (%u to %u)
g %s_%u
f -98/-98/-98 -99/-99/-99 -100/-100/-100
f -99/-99/-99 -97/-97/-97 -100/-100/-100
f -98/-98/-98 -96/-96/-96 -99/-99/-99
f -96/-96/-96 -95/-95/-95 -99/-99/-99
f -92/-92/-92 -93/-93/-93 -94/-94/-94
f -93/-93/-93 -91/-91/-91 -94/-94/-94
f -93/-93/-93 -92/-92/-92 -90/-90/-90
f -89/-89/-89 -93/-93/-93 -90/-90/-90
f -86/-86/-86 -87/-87/-87 -88/-88/-88
f -87/-87/-87 -85/-85/-85 -88/-88/-88
f -85/-85/-85 -84/-84/-84 -88/-88/-88
f -84/-84/-84 -83/-83/-83 -88/-88/-88
f -83/-83/-83 -84/-84/-84 -82/-82/-82
f -84/-84/-84 -81/-81/-81 -82/-82/-82
f -81/-81/-81 -80/-80/-80 -82/-82/-82
f -80/-80/-80 -79/-79/-79 -82/-82/-82
f -79/-79/-79 -80/-80/-80 -78/-78/-78
f -80/-80/-80 -77/-77/-77 -78/-78/-78
f -77/-77/-77 -76/-76/-76 -78/-78/-78
f -76/-76/-76 -75/-75/-75 -78/-78/-78
f -75/-75/-75 -76/-76/-76 -74/-74/-74
f -87/-87/-87 -86/-86/-86 -74/-74/-74
f -76/-76/-76 -73/-73/-73 -74/-74/-74
f -73/-73/-73 -87/-87/-87 -74/-74/-74
f -70/-70/-70 -71/-71/-71 -72/-72/-72
f -71/-71/-71 -69/-69/-69 -72/-72/-72
f -71/-71/-71 -70/-70/-70 -68/-68/-68
f -67/-67/-67 -71/-71/-71 -68/-68/-68
f -64/-64/-64 -65/-65/-65 -66/-66/-66
f -65/-65/-65 -63/-63/-63 -66/-66/-66
f -65/-65/-65 -64/-64/-64 -62/-62/-62
f -61/-61/-61 -65/-65/-65 -62/-62/-62
f -58/-58/-58 -59/-59/-59 -60/-60/-60
f -59/-59/-59 -57/-57/-57 -60/-60/-60
f -58/-58/-58 -60/-60/-60 -56/-56/-56
f -60/-60/-60 -55/-55/-55 -56/-56/-56
f -56/-56/-56 -55/-55/-55 -54/-54/-54
f -53/-53/-53 -56/-56/-56 -54/-54/-54
f -52/-52/-52 -57/-57/-57 -59/-59/-59
f -51/-51/-51 -52/-52/-52 -59/-59/-59
f -51/-51/-51 -50/-50/-50 -52/-52/-52
f -50/-50/-50 -49/-49/-49 -52/-52/-52
f -48/-48/-48 -49/-49/-49 -50/-50/-50
f -47/-47/-47 -48/-48/-48 -50/-50/-50
f -47/-47/-47 -46/-46/-46 -48/-48/-48
f -53/-53/-53 -54/-54/-54 -46/-46/-46
f -46/-46/-46 -45/-45/-45 -48/-48/-48
f -54/-54/-54 -45/-45/-45 -46/-46/-46
f -42/-42/-42 -43/-43/-43 -44/-44/-44
f -43/-43/-43 -41/-41/-41 -44/-44/-44
f -44/-44/-44 -40/-40/-40 -42/-42/-42
f -40/-40/-40 -39/-39/-39 -42/-42/-42
f -42/-42/-42 -39/-39/-39 -38/-38/-38
f -39/-39/-39 -37/-37/-37 -38/-38/-38
f -36/-36/-36 -38/-38/-38 -37/-37/-37
f -35/-35/-35 -36/-36/-36 -37/-37/-37
f -34/-34/-34 -35/-35/-35 -37/-37/-37
f -40/-40/-40 -44/-44/-44 -34/-34/-34
f -33/-33/-33 -35/-35/-35 -34/-34/-34
f -44/-44/-44 -33/-33/-33 -34/-34/-34
f -30/-30/-30 -31/-31/-31 -32/-32/-32
f -31/-31/-31 -29/-29/-29 -32/-32/-32
f -30/-30/-30 -32/-32/-32 -28/-28/-28
f -27/-27/-27 -30/-30/-30 -28/-28/-28
f -30/-30/-30 -27/-27/-27 -31/-31/-31
f -27/-27/-27 -28/-28/-28 -26/-26/-26
f -26/-26/-26 -28/-28/-28 -25/-25/-25
f -28/-28/-28 -24/-24/-24 -25/-25/-25
f -28/-28/-28 -32/-32/-32 -24/-24/-24
f -32/-32/-32 -29/-29/-29 -24/-24/-24
f -25/-25/-25 -24/-24/-24 -23/-23/-23
f -24/-24/-24 -22/-22/-22 -23/-23/-23
f -27/-27/-27 -22/-22/-22 -31/-31/-31
f -24/-24/-24 -29/-29/-29 -22/-22/-22
f -29/-29/-29 -31/-31/-31 -22/-22/-22
f -21/-21/-21 -27/-27/-27 -26/-26/-26
f -23/-23/-23 -22/-22/-22 -21/-21/-21
f -22/-22/-22 -27/-27/-27 -21/-21/-21
f -18/-18/-18 -19/-19/-19 -20/-20/-20
f -19/-19/-19 -17/-17/-17 -20/-20/-20
f -17/-17/-17 -19/-19/-19 -16/-16/-16
f -19/-19/-19 -15/-15/-15 -16/-16/-16
f -14/-14/-14 -17/-17/-17 -16/-16/-16
f -16/-16/-16 -13/-13/-13 -14/-14/-14
f -13/-13/-13 -16/-16/-16 -15/-15/-15
f -13/-13/-13 -12/-12/-12 -14/-14/-14
f -17/-17/-17 -14/-14/-14 -11/-11/-11
f -17/-17/-17 -11/-11/-11 -20/-20/-20
f -12/-12/-12 -13/-13/-13 -10/-10/-10
f -10/-10/-10 -13/-13/-13 -9/-9/-9
f -9/-9/-9 -13/-13/-13 -15/-15/-15
f -9/-9/-9 -15/-15/-15 -8/-8/-8
f -15/-15/-15 -19/-19/-19 -8/-8/-8
f -19/-19/-19 -18/-18/-18 -8/-8/-8
f -7/-7/-7 -9/-9/-9 -8/-8/-8
f -6/-6/-6 -12/-12/-12 -10/-10/-10
f -6/-6/-6 -5/-5/-5 -12/-12/-12
f -12/-12/-12 -5/-5/-5 -14/-14/-14
f -5/-5/-5 -11/-11/-11 -14/-14/-14
f -11/-11/-11 -5/-5/-5 -4/-4/-4
f -4/-4/-4 -5/-5/-5 -6/-6/-6
f -3/-3/-3 -11/-11/-11 -4/-4/-4
f -11/-11/-11 -3/-3/-3 -20/-20/-20
f -2/-2/-2 -4/-4/-4 -6/-6/-6
f -7/-7/-7 -1/-1/-1 -9/-9/-9
f -1/-1/-1 -10/-10/-10 -9/-9/-9
f -2/-2/-2 -6/-6/-6 -1/-1/-1
f -6/-6/-6 -10/-10/-10 -1/-1/-1

