# Mesh "fuel_filler_cap2" exported with UABE; 88 vertices, 222 indices, 384 bits per vertex
g fuel_filler_cap2
# SubMesh 0
# Vertices
v 0.015719 -0.00916 -0.027236
vt 0.349749 0.593337
vn 0.49977836 0.030702066 -0.865609
v -6e-06 -0.000408 -0.031179
vt 0.336414 0.585977
vn -0 0.030854588 -0.9995239
v -6e-06 -0.009156 -0.03145
vt 0.334622 0.592821
vn -0 0.030854588 -0.9995239
v 0.015588 -0.000412 -0.027001
vt 0.347489 0.585636
vn 0.49977836 0.030702066 -0.865609
v 0.02723 -0.009171 -0.015725
vt 0.362745 0.58482
vn 0.86563873 0.03036633 -0.4997474
v 0.027004 -0.000423 -0.015586
vt 0.357146 0.57982
vn 0.86563873 0.03036633 -0.4997474
v 0.031444 -0.009187 0
vt 0.370747 0.570603
vn 0.9995535 0.029877959 0
v 0.031182 -0.000438 8e-06
vt 0.363089 0.568189
vn 0.9995535 0.029877959 0
v 0.02723 -0.009202 0.015725
vt 0.371908 0.553505
vn 0.86563766 0.029389689 0.4998078
v 0.027004 -0.000453 0.015602
vt 0.363592 0.555608
vn 0.86563766 0.029389689 0.4998078
v 0.015719 -0.009213 0.027236
vt 0.362996 0.537761
vn 0.49977702 0.029023446 0.8656677
v 0.015588 -0.000464 0.027018
vt 0.357228 0.543646
vn 0.49977702 0.029023446 0.8656677
v -6e-06 -0.009217 0.03145
vt 0.348862 0.530806
vn -0 0.028901303 0.99958223
v -6e-06 -0.000468 0.031196
vt 0.347155 0.537888
vn -0 0.028901303 0.99958223
v -0.015731 -0.009213 0.027236
vt 0.333558 0.530806
vn -0.49977702 0.029023446 0.8656677
v -0.0156 -0.000464 0.027018
vt 0.335543 0.538332
vn -0.49977702 0.029023446 0.8656677
v -0.027242 -0.009202 0.015725
vt 0.319512 0.539037
vn -0.86563766 0.029389689 0.4998078
v -0.027016 -0.000453 0.015602
vt 0.325702 0.544712
vn -0.86563766 0.029389689 0.4998078
v -0.031456 -0.009187 0
vt 0.311595 0.555153
vn -0.9995535 0.029877959 0
v -0.031194 -0.000438 8e-06
vt 0.319874 0.556838
vn -0.9995535 0.029877959 0
v -0.027242 -0.009171 -0.015725
vt 0.313556 0.571784
vn -0.86563873 0.03036633 -0.4997474
v -0.027016 -0.000423 -0.015586
vt 0.321078 0.56915
vn -0.86563873 0.03036633 -0.4997474
v -0.015731 -0.00916 -0.027236
vt 0.32138 0.585855
vn -0.49977836 0.030702066 -0.865609
v -0.0156 -0.000412 -0.027001
vt 0.326861 0.580339
vn -0.49977836 0.030702066 -0.865609
v 0.022836 0.002703 0.013199
vt 0.357884 0.554699
vn -0 0.9999995 0.0009461022
v -0.022847 0.002703 0.013199
vt 0.328969 0.547431
vn -0 0.9999995 0.0009461022
v -0.026381 0.002716 1.1e-05
vt 0.325606 0.555911
vn -0 0.9999995 0.0009461022
v -0.013193 0.002694 0.022853
vt 0.336872 0.542326
vn -0 0.9999995 0.0009461022
v 0.013182 0.002694 0.022853
vt 0.354166 0.546492
vn -0 0.9999995 0.0009461022
v -6e-06 0.00269 0.026387
vt 0.346198 0.542039
vn -0 0.9999995 0.0009461022
v -6e-06 0.002742 -0.026364
vt 0.337415 0.582089
vn -0 0.8369336 -0.5473045
v 0.015588 -0.000412 -0.027001
vt 0.347489 0.585636
vn 0.27406093 0.83686244 -0.47386906
v 0.013182 0.002738 -0.02283
vt 0.346286 0.581846
vn 0.27406093 0.83686244 -0.47386906
v -6e-06 -0.000408 -0.031179
vt 0.336414 0.585977
vn -0 0.8369336 -0.5473045
v 0.027004 -0.000423 -0.015586
vt 0.357146 0.57982
vn 0.47469944 0.83666 -0.2732406
v 0.022836 0.002729 -0.013176
vt 0.353975 0.577015
vn 0.47469944 0.83666 -0.2732406
v 0.031182 -0.000438 8e-06
vt 0.363089 0.568189
vn 0.5423032 0.8276617 -0.14451042
v 0.026369 0.002716 1.1e-05
vt 0.358115 0.568879
vn 0.5423032 0.8276617 -0.14451042
v -0.013193 0.002738 -0.02283
vt 0.329842 0.577657
vn -0.27406093 0.83686244 -0.47386906
v -0.0156 -0.000412 -0.027001
vt 0.326861 0.580339
vn -0.27406093 0.83686244 -0.47386906
v -0.022847 0.002729 -0.013176
vt 0.32595 0.569596
vn -0.39699617 0.8278994 -0.39620268
v -0.027016 -0.000423 -0.015586
vt 0.321078 0.56915
vn -0.39699617 0.8278994 -0.39620268
v -0.027016 -0.000423 -0.015586
vt 0.321078 0.56915
vn -0.8960709 0.3727296 -0.24110077
v -0.028395 0.00605 -0.000451
vt 0.324241 0.559849
vn -0.77283275 0.5994848 -0.20820063
v -0.031194 -0.000438 8e-06
vt 0.319874 0.556838
vn -0.8960709 0.3727296 -0.24110077
v -0.024836 0.006063 -0.013571
vt 0.324244 0.565987
vn -0.77344954 0.5986352 -0.20835498
v -0.024296 0.009203 0.000664
vt 0.326816 0.559903
vn -0.3036356 0.9493 -0.081455775
v -0.020721 0.009216 -0.012511
vt 0.326679 0.565885
vn -0.3012884 0.9501022 -0.080815606
v 0.024296 0.009205 -0.000625
vt 0.357184 0.565011
vn 0.30574104 0.9484138 0.083866686
v 0.020721 0.009192 0.01255
vt 0.356714 0.559016
vn 0.30338728 0.94922584 0.08322473
v 0.024805 0.006037 0.013715
vt 0.359381 0.558823
vn 0.7743398 0.59699124 0.20976028
v 0.028425 0.006049 0.000372
vt 0.359694 0.565023
vn 0.77371055 0.5978617 0.20960255
v 0.027004 -0.000453 0.015602
vt 0.363592 0.555608
vn 0.8966381 0.37078378 0.24199067
v 0.031182 -0.000438 8e-06
vt 0.363089 0.568189
vn 0.8966381 0.37078378 0.24199067
v 0.022836 0.002703 0.013199
vt 0.357884 0.554699
vn 0.3969967 0.82713753 0.39779022
v 0.015588 -0.000464 0.027018
vt 0.357228 0.543646
vn 0.27406037 0.8359452 0.4754856
v 0.013182 0.002694 0.022853
vt 0.354166 0.546492
vn 0.27406037 0.8359452 0.4754856
v 0.027004 -0.000453 0.015602
vt 0.363592 0.555608
vn 0.3969967 0.82713753 0.39779022
v -6e-06 -0.000468 0.031196
vt 0.347155 0.537888
vn -0 0.83585715 0.54894704
v -6e-06 0.00269 0.026387
vt 0.346198 0.542039
vn -0 0.83585715 0.54894704
v -0.0156 -0.000464 0.027018
vt 0.335543 0.538332
vn -0.27406037 0.8359452 0.4754856
v -0.013193 0.002694 0.022853
vt 0.336872 0.542326
vn -0.27406037 0.8359452 0.4754856
v -0.027016 -0.000453 0.015602
vt 0.325702 0.544712
vn -0.474695 0.8361334 0.27485555
v -0.022847 0.002703 0.013199
vt 0.328969 0.547431
vn -0.474695 0.8361334 0.27485555
v -0.031194 -0.000438 8e-06
vt 0.319874 0.556838
vn -0.5423014 0.8273843 0.14609694
v -0.026381 0.002716 1.1e-05
vt 0.325606 0.555911
vn -0.5423014 0.8273843 0.14609694
v 0.022836 0.002703 0.013199
vt 0.357884 0.554699
vn -0.32212985 0.042787876 0.94572806
v 0.024805 0.006037 0.013715
vt 0.359381 0.558823
vn -0.35402203 0.064639546 0.9330007
v 0.027004 -0.000453 0.015602
vt 0.363592 0.555608
vn -0.35402203 0.064639546 0.9330007
v 0.020721 0.009192 0.01255
vt 0.356714 0.559016
vn -0.28086406 0.0149236685 0.9596315
v -0.026381 0.002716 1.1e-05
vt 0.325606 0.555911
vn -0.18934081 0.028565923 0.9814958
v -0.024296 0.009203 0.000664
vt 0.326816 0.559903
vn -0.23249345 0.009888143 0.9725477
v -0.031194 -0.000438 8e-06
vt 0.319874 0.556838
vn -0.15455034 0.043459654 0.9870286
v -0.028395 0.00605 -0.000451
vt 0.324241 0.559849
vn -0.15455034 0.043459654 0.9870286
v 0.026369 0.002716 1.1e-05
vt 0.358115 0.568879
vn 0.1728572 0.018494256 -0.9847733
v -0.020721 0.009216 -0.012511
vt 0.326679 0.565885
vn 0.27482477 0.021180276 -0.96126103
v -0.022847 0.002729 -0.013176
vt 0.32595 0.569596
vn 0.30561733 0.05688743 -0.95045346
v 0.024296 0.009205 -0.000625
vt 0.357184 0.565011
vn 0.22638875 0.0074160784 -0.9740088
v -0.024836 0.006063 -0.013571
vt 0.324244 0.565987
vn 0.3293074 0.08484474 -0.9404031
v -0.027016 -0.000423 -0.015586
vt 0.321078 0.56915
vn 0.3293074 0.08484474 -0.9404031
v 0.031182 -0.000438 8e-06
vt 0.363089 0.568189
vn 0.12949315 0.027314726 -0.991204
v 0.028425 0.006049 0.000372
vt 0.359694 0.565023
vn 0.12949315 0.027314726 -0.991204
v 0.013182 0.002738 -0.02283
vt 0.346286 0.581846
vn -0 0.9999995 0.0009461022
v -0.013193 0.002738 -0.02283
vt 0.329842 0.577657
vn -0 0.9999995 0.0009461022
v -6e-06 0.002742 -0.026364
vt 0.337415 0.582089
vn -0 0.9999995 0.0009461022
v -0.022847 0.002729 -0.013176
vt 0.32595 0.569596
vn -0 0.9999995 0.0009461022
v 0.022836 0.002729 -0.013176
vt 0.353975 0.577015
vn -0 0.9999995 0.0009461022
v 0.026369 0.002716 1.1e-05
vt 0.358115 0.568879
vn -0 0.9999995 0.0009461022
# Faces (%u to %u)
g %s_%u
f -86/-86/-86 -87/-87/-87 -88/-88/-88
f -87/-87/-87 -85/-85/-85 -88/-88/-88
f -84/-84/-84 -88/-88/-88 -85/-85/-85
f -83/-83/-83 -84/-84/-84 -85/-85/-85
f -82/-82/-82 -84/-84/-84 -83/-83/-83
f -81/-81/-81 -82/-82/-82 -83/-83/-83
f -80/-80/-80 -82/-82/-82 -81/-81/-81
f -79/-79/-79 -80/-80/-80 -81/-81/-81
f -78/-78/-78 -80/-80/-80 -79/-79/-79
f -77/-77/-77 -78/-78/-78 -79/-79/-79
f -76/-76/-76 -78/-78/-78 -77/-77/-77
f -75/-75/-75 -76/-76/-76 -77/-77/-77
f -74/-74/-74 -76/-76/-76 -75/-75/-75
f -73/-73/-73 -74/-74/-74 -75/-75/-75
f -72/-72/-72 -74/-74/-74 -73/-73/-73
f -71/-71/-71 -72/-72/-72 -73/-73/-73
f -70/-70/-70 -72/-72/-72 -71/-71/-71
f -69/-69/-69 -70/-70/-70 -71/-71/-71
f -68/-68/-68 -70/-70/-70 -69/-69/-69
f -67/-67/-67 -68/-68/-68 -69/-69/-69
f -66/-66/-66 -68/-68/-68 -67/-67/-67
f -65/-65/-65 -66/-66/-66 -67/-67/-67
f -66/-66/-66 -65/-65/-65 -86/-86/-86
f -65/-65/-65 -87/-87/-87 -86/-86/-86
f -62/-62/-62 -63/-63/-63 -64/-64/-64
f -63/-63/-63 -61/-61/-61 -64/-64/-64
f -61/-61/-61 -60/-60/-60 -64/-64/-64
f -59/-59/-59 -60/-60/-60 -61/-61/-61
f -56/-56/-56 -57/-57/-57 -58/-58/-58
f -57/-57/-57 -55/-55/-55 -58/-58/-58
f -54/-54/-54 -57/-57/-57 -56/-56/-56
f -53/-53/-53 -54/-54/-54 -56/-56/-56
f -52/-52/-52 -54/-54/-54 -53/-53/-53
f -51/-51/-51 -52/-52/-52 -53/-53/-53
f -58/-58/-58 -55/-55/-55 -50/-50/-50
f -55/-55/-55 -49/-49/-49 -50/-50/-50
f -50/-50/-50 -49/-49/-49 -48/-48/-48
f -49/-49/-49 -47/-47/-47 -48/-48/-48
f -44/-44/-44 -45/-45/-45 -46/-46/-46
f -45/-45/-45 -43/-43/-43 -46/-46/-46
f -43/-43/-43 -45/-45/-45 -42/-42/-42
f -41/-41/-41 -43/-43/-43 -42/-42/-42
f -41/-41/-41 -42/-42/-42 -40/-40/-40
f -42/-42/-42 -39/-39/-39 -40/-40/-40
f -39/-39/-39 -38/-38/-38 -40/-40/-40
f -38/-38/-38 -37/-37/-37 -40/-40/-40
f -37/-37/-37 -38/-38/-38 -36/-36/-36
f -35/-35/-35 -37/-37/-37 -36/-36/-36
f -32/-32/-32 -33/-33/-33 -34/-34/-34
f -33/-33/-33 -31/-31/-31 -34/-34/-34
f -30/-30/-30 -33/-33/-33 -32/-32/-32
f -29/-29/-29 -30/-30/-30 -32/-32/-32
f -28/-28/-28 -30/-30/-30 -29/-29/-29
f -27/-27/-27 -28/-28/-28 -29/-29/-29
f -26/-26/-26 -28/-28/-28 -27/-27/-27
f -25/-25/-25 -26/-26/-26 -27/-27/-27
f -24/-24/-24 -26/-26/-26 -25/-25/-25
f -23/-23/-23 -24/-24/-24 -25/-25/-25
f -20/-20/-20 -21/-21/-21 -22/-22/-22
f -21/-21/-21 -19/-19/-19 -22/-22/-22
f -22/-22/-22 -19/-19/-19 -18/-18/-18
f -19/-19/-19 -17/-17/-17 -18/-18/-18
f -18/-18/-18 -17/-17/-17 -16/-16/-16
f -17/-17/-17 -15/-15/-15 -16/-16/-16
f -12/-12/-12 -13/-13/-13 -14/-14/-14
f -13/-13/-13 -11/-11/-11 -14/-14/-14
f -10/-10/-10 -13/-13/-13 -12/-12/-12
f -9/-9/-9 -10/-10/-10 -12/-12/-12
f -14/-14/-14 -11/-11/-11 -8/-8/-8
f -11/-11/-11 -7/-7/-7 -8/-8/-8
f -4/-4/-4 -5/-5/-5 -6/-6/-6
f -5/-5/-5 -3/-3/-3 -6/-6/-6
f -6/-6/-6 -3/-3/-3 -2/-2/-2
f -3/-3/-3 -1/-1/-1 -2/-2/-2

