# Mesh "headlight_glare" exported with UABE; 20 vertices, 54 indices, 384 bits per vertex
g headlight_glare
# SubMesh 0
# Vertices
v 0.027029 0.040934 -0.074247
vt 0.461007 0.379991
vn -0 1 0
v -0.022932 0.040934 -0.074248
vt 0.538994 0.379991
vn -0 1 0
v 0.002048 0.040934 -0.078204
vt 0.500001 0.373814
vn -0 1 0
v -0.045467 0.040934 -0.062765
vt 0.57417 0.397914
vn -0 1 0
v 0.049565 0.040934 -0.062764
vt 0.425829 0.397915
vn -0 1 0
v -0.063351 0.040933 -0.044881
vt 0.602087 0.425831
vn -0 1 0
v 0.067449 0.040933 -0.04488
vt 0.397913 0.425831
vn -0 1 0
v -0.074833 0.040934 -0.022347
vt 0.62001 0.461006
vn -0 1 0
v 0.078931 0.040934 -0.022346
vt 0.37999 0.461007
vn -0 1 0
v -0.07879 0.040934 0.002635
vt 0.626186 0.500002
vn -0 1 0
v 0.082888 0.040934 0.002635
vt 0.373814 0.500001
vn -0 1 0
v 0.078931 0.040934 0.027615
vt 0.37999 0.538994
vn -0 1 0
v -0.074833 0.040934 0.027617
vt 0.62001 0.538996
vn -0 1 0
v 0.067448 0.040934 0.050151
vt 0.397914 0.574172
vn -0 1 0
v -0.063351 0.040934 0.050151
vt 0.602087 0.574173
vn -0 1 0
v 0.049565 0.040933 0.068035
vt 0.425829 0.602088
vn -0 1 0
v -0.045468 0.040933 0.068035
vt 0.574172 0.602087
vn -0 1 0
v -0.022934 0.040933 0.079516
vt 0.538998 0.62001
vn -0 1 0
v 0.027031 0.040933 0.079516
vt 0.461004 0.62001
vn -0 1 0
v 0.002049 0.040933 0.083473
vt 0.5 0.626186
vn -0 1 0
# Faces (%u to %u)
g %s_%u
f -18/-18/-18 -19/-19/-19 -20/-20/-20
f -19/-19/-19 -17/-17/-17 -20/-20/-20
f -20/-20/-20 -17/-17/-17 -16/-16/-16
f -17/-17/-17 -15/-15/-15 -16/-16/-16
f -16/-16/-16 -15/-15/-15 -14/-14/-14
f -15/-15/-15 -13/-13/-13 -14/-14/-14
f -14/-14/-14 -13/-13/-13 -12/-12/-12
f -13/-13/-13 -11/-11/-11 -12/-12/-12
f -12/-12/-12 -11/-11/-11 -10/-10/-10
f -10/-10/-10 -11/-11/-11 -9/-9/-9
f -11/-11/-11 -8/-8/-8 -9/-9/-9
f -8/-8/-8 -7/-7/-7 -9/-9/-9
f -6/-6/-6 -7/-7/-7 -8/-8/-8
f -5/-5/-5 -7/-7/-7 -6/-6/-6
f -4/-4/-4 -5/-5/-5 -6/-6/-6
f -3/-3/-3 -5/-5/-5 -4/-4/-4
f -2/-2/-2 -5/-5/-5 -3/-3/-3
f -1/-1/-1 -2/-2/-2 -3/-3/-3

