# Mesh "register_plate" exported with UABE; 48 vertices, 132 indices, 384 bits per vertex
g register_plate
# SubMesh 0
# Vertices
v -0.001043 0.1985 -0.050807
vt 0.030651 0.445463
vn -1 0 0
v -0.001043 0.1985 0.050807
vt 0.030651 0.925725
vn -1 0 0
v -0.001043 0.195454 -0.056574
vt 0.037849 0.418205
vn -1 0 0
v -0.001043 0.195454 0.056574
vt 0.037849 0.952983
vn -1 0 0
v -0.001043 0.190307 -0.059
vt 0.050013 0.406738
vn -1 0 0
v -0.001043 0.190307 0.059
vt 0.050013 0.96445
vn -1 0 0
v -0.001043 -0.190307 -0.059
vt 0.949472 0.406739
vn -1 0 0
v -0.001043 -0.190307 0.059
vt 0.949472 0.96445
vn -1 0 0
v -0.001043 -0.195454 -0.056574
vt 0.961636 0.418205
vn -1 0 0
v -0.001043 -0.195454 0.056574
vt 0.961636 0.952983
vn -1 0 0
v -0.001043 -0.1985 -0.050807
vt 0.968834 0.445464
vn -1 0 0
v -0.001043 -0.1985 0.050807
vt 0.968834 0.925725
vn -1 0 0
v 0.001043 0.190307 -0.059
vt 0.02936 0.380947
vn -0 0.21842635 -0.97585344
v -0.001043 -0.190307 -0.059
vt 0.954533 0.401079
vn -0 -0.21842635 -0.97585344
v 0.001043 -0.190307 -0.059
vt 0.971372 0.380947
vn -0 -0.21842635 -0.97585344
v -0.001043 0.190307 -0.059
vt 0.046199 0.401079
vn -0 0.21842635 -0.97585344
v 0.001043 -0.195454 -0.056574
vt 0.984111 0.402647
vn -0 -0.69084 -0.72300756
v -0.001043 -0.195454 -0.056574
vt 0.966818 0.412658
vn -0 -0.69084 -0.72300756
v 0.001043 -0.1985 -0.050807
vt 0.99165 0.431196
vn -0 -0.970636 -0.24055317
v -0.001043 -0.1985 -0.050807
vt 0.974087 0.440186
vn -0 -0.970636 -0.24055317
v -0.001043 -0.1985 0.050807
vt 0.974087 0.925196
vn -0 -0.970636 0.24055317
v 0.001043 -0.1985 0.050807
vt 0.99165 0.934187
vn -0 -0.970636 0.24055317
v 0.001043 -0.195454 0.056574
vt 0.984111 0.962735
vn -0 -0.69084 0.72300756
v -0.001043 -0.195454 0.056574
vt 0.966818 0.952724
vn -0 -0.69084 0.72300756
v 0.001043 -0.190307 0.059
vt 0.971372 0.98575
vn -0 -0.21842635 0.97585344
v -0.001043 -0.190307 0.059
vt 0.954533 0.964304
vn -0 -0.21842635 0.97585344
v -0.001043 0.190307 0.059
vt 0.046199 0.964303
vn -0 0.21842635 0.97585344
v 0.001043 0.190307 0.059
vt 0.02936 0.985749
vn -0 0.21842635 0.97585344
v 0.001043 0.195454 0.056574
vt 0.016621 0.962735
vn -0 0.69084 0.72300756
v -0.001043 0.195454 0.056574
vt 0.033914 0.952724
vn -0 0.69084 0.72300756
v 0.001043 0.1985 0.050807
vt 0.009082 0.934187
vn -0 0.970636 0.24055317
v -0.001043 0.1985 0.050807
vt 0.026645 0.925196
vn -0 0.970636 0.24055317
v -0.001043 0.1985 -0.050807
vt 0.026645 0.440186
vn -0 0.970636 -0.24055317
v 0.001043 0.1985 -0.050807
vt 0.009082 0.431196
vn -0 0.970636 -0.24055317
v 0.001043 0.195454 -0.056574
vt 0.016621 0.402647
vn -0 0.69084 -0.72300756
v -0.001043 0.195454 -0.056574
vt 0.033914 0.412658
vn -0 0.69084 -0.72300756
v 0.001043 0.1985 -0.050807
vt 0.234476 0.043206
vn 1 0 0
v 0.001043 0.195454 0.056574
vt 0.238694 0.350997
vn 1 0 0
v 0.001043 0.1985 0.050807
vt 0.234476 0.334466
vn 1 0 0
v 0.001043 0.195454 -0.056574
vt 0.238694 0.026675
vn 1 0 0
v 0.001043 0.190307 0.059
vt 0.245821 0.357951
vn 1 0 0
v 0.001043 0.190307 -0.059
vt 0.245821 0.019721
vn 1 0 0
v 0.001043 -0.190307 0.059
vt 0.772848 0.357951
vn 1 0 0
v 0.001043 -0.190307 -0.059
vt 0.772848 0.019721
vn 1 0 0
v 0.001043 -0.195454 0.056574
vt 0.779975 0.350997
vn 1 0 0
v 0.001043 -0.195454 -0.056574
vt 0.779975 0.026675
vn 1 0 0
v 0.001043 -0.1985 0.050807
vt 0.784193 0.334466
vn 1 0 0
v 0.001043 -0.1985 -0.050807
vt 0.784193 0.043206
vn 1 0 0
# Faces (%u to %u)
g %s_%u
f -46/-46/-46 -47/-47/-47 -48/-48/-48
f -45/-45/-45 -47/-47/-47 -46/-46/-46
f -44/-44/-44 -45/-45/-45 -46/-46/-46
f -43/-43/-43 -45/-45/-45 -44/-44/-44
f -42/-42/-42 -43/-43/-43 -44/-44/-44
f -41/-41/-41 -43/-43/-43 -42/-42/-42
f -40/-40/-40 -41/-41/-41 -42/-42/-42
f -39/-39/-39 -41/-41/-41 -40/-40/-40
f -38/-38/-38 -39/-39/-39 -40/-40/-40
f -37/-37/-37 -39/-39/-39 -38/-38/-38
f -34/-34/-34 -35/-35/-35 -36/-36/-36
f -35/-35/-35 -33/-33/-33 -36/-36/-36
f -34/-34/-34 -32/-32/-32 -35/-35/-35
f -32/-32/-32 -31/-31/-31 -35/-35/-35
f -32/-32/-32 -30/-30/-30 -31/-31/-31
f -30/-30/-30 -29/-29/-29 -31/-31/-31
f -28/-28/-28 -29/-29/-29 -30/-30/-30
f -27/-27/-27 -28/-28/-28 -30/-30/-30
f -28/-28/-28 -27/-27/-27 -26/-26/-26
f -25/-25/-25 -28/-28/-28 -26/-26/-26
f -25/-25/-25 -26/-26/-26 -24/-24/-24
f -23/-23/-23 -25/-25/-25 -24/-24/-24
f -22/-22/-22 -23/-23/-23 -24/-24/-24
f -21/-21/-21 -22/-22/-22 -24/-24/-24
f -22/-22/-22 -21/-21/-21 -20/-20/-20
f -19/-19/-19 -22/-22/-22 -20/-20/-20
f -19/-19/-19 -20/-20/-20 -18/-18/-18
f -17/-17/-17 -19/-19/-19 -18/-18/-18
f -16/-16/-16 -17/-17/-17 -18/-18/-18
f -15/-15/-15 -16/-16/-16 -18/-18/-18
f -16/-16/-16 -15/-15/-15 -14/-14/-14
f -13/-13/-13 -16/-16/-16 -14/-14/-14
f -14/-14/-14 -36/-36/-36 -13/-13/-13
f -36/-36/-36 -33/-33/-33 -13/-13/-13
f -10/-10/-10 -11/-11/-11 -12/-12/-12
f -12/-12/-12 -11/-11/-11 -9/-9/-9
f -11/-11/-11 -8/-8/-8 -9/-9/-9
f -9/-9/-9 -8/-8/-8 -7/-7/-7
f -8/-8/-8 -6/-6/-6 -7/-7/-7
f -7/-7/-7 -6/-6/-6 -5/-5/-5
f -6/-6/-6 -4/-4/-4 -5/-5/-5
f -5/-5/-5 -4/-4/-4 -3/-3/-3
f -4/-4/-4 -2/-2/-2 -3/-3/-3
f -3/-3/-3 -2/-2/-2 -1/-1/-1

