# Mesh "tractor_pedal_speed" exported with UABE; 87 vertices, 189 indices, 384 bits per vertex
g tractor_pedal_speed
# SubMesh 0
# Vertices
v -0.108686 -0.078092 -0.012724
vt 0.556887 0.749345
vn 0.9995407 0 0.030305756
v -0.112216 0.039164 -0.017905
vt 0.555325 0.732368
vn 0.25331038 -0.04025499 -0.9665471
v -0.112216 -0.078108 -0.017905
vt 0.555947 0.749404
vn 0.33629 0 -0.9417586
v -0.108686 0.03918 -0.012724
vt 0.556265 0.732309
vn 0.9673428 -0.2516935 0.029970048
v -0.107865 0.048097 -0.017797
vt 0.555606 0.730908
vn 0.16468234 -0.13535325 -0.9770155
v -0.105404 0.045503 -0.012649
vt 0.556478 0.731268
vn 0.70460767 -0.7093077 0.020265061
v -0.09913 0.052322 -0.017508
vt 0.556251 0.72997
vn 0.11508697 -0.21818 -0.96909887
v -0.099268 0.048637 -0.012438
vt 0.556932 0.730585
vn 0.2530331 -0.967422 -0.008301171
v -0.108686 0.03918 -0.012724
vt 0.557142 0.731046
vn 0.9673428 -0.2516935 0.029970048
v -0.112523 -0.078108 -0.007766
vt 0.5579 0.747344
vn 0.27858046 0 0.96041286
v -0.112523 0.039164 -0.007766
vt 0.558073 0.730994
vn 0.19483599 -0.037966162 0.98010075
v -0.108686 -0.078092 -0.012724
vt 0.556969 0.747397
vn 0.9995407 0 0.030305756
v -0.105404 0.045503 -0.012649
vt 0.556932 0.730332
vn 0.70460767 -0.7093077 0.020265061
v -0.108173 0.048097 -0.007659
vt 0.557796 0.72997
vn 0.10452833 -0.1348034 0.9853436
v -0.112216 -0.078108 -0.017905
vt 0.557594 0.704677
vn 0.33629 0 -0.9417586
v -0.118234 0.039139 -0.01615
vt 0.540082 0.704705
vn -0.7989149 0.17490855 -0.57544947
v -0.118234 -0.078133 -0.01615
vt 0.557532 0.705614
vn -0.7913971 0 -0.61130244
v -0.112216 0.039164 -0.017905
vt 0.540144 0.703768
vn 0.25331038 -0.04025499 -0.9665471
v -0.112156 0.052295 -0.015989
vt 0.538144 0.703704
vn -0.5826248 0.5987088 -0.5496328
v -0.107865 0.048097 -0.017797
vt 0.538829 0.703055
vn 0.16468234 -0.13535325 -0.9770155
v -0.099214 0.058284 -0.015573
vt 0.537292 0.701744
vn -0.13175195 0.8108986 -0.5701622
v -0.09913 0.052322 -0.017508
vt 0.538226 0.701731
vn 0.11508697 -0.21818 -0.96909887
v 0.093437 0.053413 0.006858
vt 0.538213 0.673701
vn 0.6526879 -0.24558963 -0.71671766
v 0.093353 0.059375 0.008793
vt 0.537279 0.673714
vn 0.6257293 0.65398985 -0.425159
v -0.118424 0.039139 -0.009884
vt 0.559596 0.73178
vn -0.8318578 0.1755761 0.5264842
v -0.118234 -0.078133 -0.01615
vt 0.56062 0.749159
vn -0.7913971 0 -0.61130244
v -0.118234 0.039139 -0.01615
vt 0.560537 0.73176
vn -0.7989149 0.17490855 -0.57544947
v -0.118424 -0.078133 -0.009884
vt 0.559679 0.74918
vn -0.8269923 0 0.5622132
v -0.112346 0.052295 -0.009723
vt 0.559681 0.729991
vn -0.6154179 0.5992733 0.51198864
v -0.112156 0.052295 -0.015989
vt 0.560621 0.72997
vn -0.5826248 0.5987088 -0.5496328
v -0.108173 0.048097 -0.007659
vt 0.535679 0.703808
vn 0.10452833 -0.1348034 0.9853436
v -0.118424 0.039139 -0.009884
vt 0.534363 0.705418
vn -0.8318578 0.1755761 0.5264842
v -0.112346 0.052295 -0.009723
vt 0.536339 0.704484
vn -0.6154179 0.5992733 0.51198864
v -0.112523 0.039164 -0.007766
vt 0.534338 0.704474
vn 0.19483599 -0.037966162 0.98010075
v -0.118424 -0.078133 -0.009884
vt 0.51682 0.705883
vn -0.8269923 0 0.5622132
v -0.112523 -0.078108 -0.007766
vt 0.516794 0.704939
vn 0.27858046 0 0.96041286
v -0.099438 0.052322 -0.007369
vt 0.536321 0.70252
vn -0.03653194 -0.23332222 0.971713
v -0.099404 0.058284 -0.009307
vt 0.537249 0.702578
vn -0.22077483 0.8191924 0.5293225
v 0.093163 0.059375 0.015059
vt 0.537279 0.673759
vn 0.5551138 0.6517071 0.5168428
v 0.093129 0.053413 0.016996
vt 0.536351 0.673701
vn 0.53842205 -0.24464294 0.80638176
v -0.099268 0.048637 -0.012438
vt 0.596053 0.682042
vn 0.2530331 -0.967422 -0.008301171
v -0.108173 0.048097 -0.007659
vt 0.595185 0.680799
vn 0.10452833 -0.1348034 0.9853436
v -0.099438 0.052322 -0.007369
vt 0.595233 0.682113
vn -0.03653194 -0.23332222 0.971713
v -0.105404 0.045503 -0.012649
vt 0.596023 0.681118
vn 0.70460767 -0.7093077 0.020265061
v 0.093129 0.053413 0.016996
vt 0.595198 0.71138
vn 0.53842205 -0.24464294 0.80638176
v 0.093298 0.049728 0.011928
vt 0.596018 0.711308
vn 0.59705347 -0.80083233 0.04684747
v -0.09913 0.052322 -0.017508
vt 0.596746 0.681969
vn 0.11508697 -0.21818 -0.96909887
v 0.093437 0.053413 0.006858
vt 0.596711 0.711236
vn 0.6526879 -0.24558963 -0.71671766
v -0.099404 0.058284 -0.009307
vt 0.59604 0.752159
vn -0.22077483 0.8191924 0.5293225
v -0.112156 0.052295 -0.015989
vt 0.596746 0.754378
vn -0.5826248 0.5987088 -0.5496328
v -0.099214 0.058284 -0.015573
vt 0.596979 0.752259
vn -0.13175195 0.8108986 -0.5701622
v -0.112346 0.052295 -0.009723
vt 0.595807 0.754278
vn -0.6154179 0.5992733 0.51198864
v 0.093353 0.059375 0.008793
vt 0.596807 0.724206
vn 0.6257293 0.65398985 -0.425159
v 0.093163 0.059375 0.015059
vt 0.595868 0.724106
vn 0.5551138 0.6517071 0.5168428
v 0.06854 0.017476 0.012701
vt 0.92788 0.091039
vn -0.7397333 0.101477556 -0.6652045
v 0.118254 -0.007927 0.005331
vt 0.985437 0.063504
vn 0.5577083 -0.50048476 -0.6621756
v 0.118302 0.016293 0.012734
vt 0.985199 0.090684
vn 0.7427603 0.10068481 -0.6619439
v 0.068491 -0.006743 0.005298
vt 0.928585 0.064018
vn -0.56879437 -0.48236278 -0.6661825
v 0.118254 -0.007927 0.010155
vt 0.985646 0.063116
vn 0.5865479 -0.6536901 0.47817436
v 0.068491 -0.006743 0.010122
vt 0.928488 0.063636
vn -0.6025146 -0.6388633 0.4783616
v 0.068662 0.078133 0.013048
vt 0.92648 0.160198
vn -0.5705337 0.5867701 -0.57462335
v 0.118424 0.076949 0.013081
vt 0.983814 0.160262
vn 0.58465713 0.5708319 -0.576478
v 0.068662 0.078133 0.017872
vt 0.926371 0.160331
vn -0.5703144 0.583865 0.57779163
v 0.118424 0.076949 0.017905
vt 0.984016 0.160397
vn 0.58365715 0.5677259 0.5805441
v 0.06854 0.017476 0.017525
vt 0.927779 0.090799
vn -0.67753255 -0.10797794 0.72752345
v 0.118254 -0.007927 0.010155
vt 0.985646 0.063116
vn 0.5865479 -0.6536901 0.47817436
v 0.068491 -0.006743 0.010122
vt 0.928488 0.063636
vn -0.6025146 -0.6388633 0.4783616
v 0.118302 0.016293 0.017558
vt 0.985408 0.090441
vn 0.67420745 -0.11399054 0.72969204
v 0.068662 0.078133 0.017872
vt 0.926371 0.160331
vn -0.5703144 0.583865 0.57779163
v 0.118424 0.076949 0.017905
vt 0.984016 0.160397
vn 0.58365715 0.5677259 0.5805441
v 0.118302 0.016293 0.012734
vt 0.985199 0.090684
vn 0.7427603 0.10068481 -0.6619439
v 0.118424 0.076949 0.017905
vt 0.984016 0.160397
vn 0.58365715 0.5677259 0.5805441
v 0.118424 0.076949 0.013081
vt 0.983814 0.160262
vn 0.58465713 0.5708319 -0.576478
v 0.118302 0.016293 0.017558
vt 0.985408 0.090441
vn 0.67420745 -0.11399054 0.72969204
v 0.118254 -0.007927 0.005331
vt 0.985437 0.063504
vn 0.5577083 -0.50048476 -0.6621756
v 0.118254 -0.007927 0.010155
vt 0.985646 0.063116
vn 0.5865479 -0.6536901 0.47817436
v 0.06854 0.017476 0.012701
vt 0.92788 0.091039
vn -0.7397333 0.101477556 -0.6652045
v 0.068491 -0.006743 0.010122
vt 0.928488 0.063636
vn -0.6025146 -0.6388633 0.4783616
v 0.068491 -0.006743 0.005298
vt 0.928585 0.064018
vn -0.56879437 -0.48236278 -0.6661825
v 0.06854 0.017476 0.017525
vt 0.927779 0.090799
vn -0.67753255 -0.10797794 0.72752345
v 0.068662 0.078133 0.013048
vt 0.92648 0.160198
vn -0.5705337 0.5867701 -0.57462335
v 0.068662 0.078133 0.017872
vt 0.926371 0.160331
vn -0.5703144 0.583865 0.57779163
v 0.093437 0.053413 0.006858
vt 0.555134 0.705955
vn 0.6526879 -0.24558963 -0.71671766
v 0.093163 0.059375 0.015059
vt 0.556355 0.706343
vn 0.5551138 0.6517071 0.5168428
v 0.093353 0.059375 0.008793
vt 0.555888 0.705614
vn 0.6257293 0.65398985 -0.425159
v 0.093129 0.053413 0.016996
vt 0.555889 0.707135
vn 0.53842205 -0.24464294 0.80638176
v 0.093298 0.049728 0.011928
vt 0.555134 0.706895
vn 0.59705347 -0.80083233 0.04684747
# Faces (%u to %u)
g %s_%u
f -85/-85/-85 -86/-86/-86 -87/-87/-87
f -86/-86/-86 -84/-84/-84 -87/-87/-87
f -84/-84/-84 -86/-86/-86 -83/-83/-83
f -82/-82/-82 -84/-84/-84 -83/-83/-83
f -82/-82/-82 -83/-83/-83 -81/-81/-81
f -80/-80/-80 -82/-82/-82 -81/-81/-81
f -77/-77/-77 -78/-78/-78 -79/-79/-79
f -78/-78/-78 -76/-76/-76 -79/-79/-79
f -77/-77/-77 -79/-79/-79 -75/-75/-75
f -74/-74/-74 -77/-77/-77 -75/-75/-75
f -71/-71/-71 -72/-72/-72 -73/-73/-73
f -72/-72/-72 -70/-70/-70 -73/-73/-73
f -70/-70/-70 -72/-72/-72 -69/-69/-69
f -68/-68/-68 -70/-70/-70 -69/-69/-69
f -68/-68/-68 -69/-69/-69 -67/-67/-67
f -66/-66/-66 -68/-68/-68 -67/-67/-67
f -65/-65/-65 -66/-66/-66 -67/-67/-67
f -64/-64/-64 -65/-65/-65 -67/-67/-67
f -61/-61/-61 -62/-62/-62 -63/-63/-63
f -62/-62/-62 -60/-60/-60 -63/-63/-63
f -61/-61/-61 -63/-63/-63 -59/-59/-59
f -58/-58/-58 -61/-61/-61 -59/-59/-59
f -55/-55/-55 -56/-56/-56 -57/-57/-57
f -56/-56/-56 -54/-54/-54 -57/-57/-57
f -56/-56/-56 -53/-53/-53 -54/-54/-54
f -53/-53/-53 -52/-52/-52 -54/-54/-54
f -55/-55/-55 -57/-57/-57 -51/-51/-51
f -50/-50/-50 -55/-55/-55 -51/-51/-51
f -49/-49/-49 -50/-50/-50 -51/-51/-51
f -48/-48/-48 -49/-49/-49 -51/-51/-51
f -45/-45/-45 -46/-46/-46 -47/-47/-47
f -46/-46/-46 -44/-44/-44 -47/-47/-47
f -43/-43/-43 -45/-45/-45 -47/-47/-47
f -42/-42/-42 -43/-43/-43 -47/-47/-47
f -42/-42/-42 -47/-47/-47 -41/-41/-41
f -40/-40/-40 -42/-42/-42 -41/-41/-41
f -37/-37/-37 -38/-38/-38 -39/-39/-39
f -38/-38/-38 -36/-36/-36 -39/-39/-39
f -35/-35/-35 -37/-37/-37 -39/-39/-39
f -34/-34/-34 -35/-35/-35 -39/-39/-39
f -31/-31/-31 -32/-32/-32 -33/-33/-33
f -32/-32/-32 -30/-30/-30 -33/-33/-33
f -32/-32/-32 -29/-29/-29 -30/-30/-30
f -29/-29/-29 -28/-28/-28 -30/-30/-30
f -31/-31/-31 -33/-33/-33 -27/-27/-27
f -26/-26/-26 -31/-31/-31 -27/-27/-27
f -27/-27/-27 -25/-25/-25 -26/-26/-26
f -25/-25/-25 -24/-24/-24 -26/-26/-26
f -21/-21/-21 -22/-22/-22 -23/-23/-23
f -22/-22/-22 -20/-20/-20 -23/-23/-23
f -23/-23/-23 -20/-20/-20 -19/-19/-19
f -20/-20/-20 -18/-18/-18 -19/-19/-19
f -15/-15/-15 -16/-16/-16 -17/-17/-17
f -16/-16/-16 -14/-14/-14 -17/-17/-17
f -17/-17/-17 -14/-14/-14 -13/-13/-13
f -14/-14/-14 -12/-12/-12 -13/-13/-13
f -9/-9/-9 -10/-10/-10 -11/-11/-11
f -10/-10/-10 -8/-8/-8 -11/-11/-11
f -11/-11/-11 -8/-8/-8 -7/-7/-7
f -8/-8/-8 -6/-6/-6 -7/-7/-7
f -3/-3/-3 -4/-4/-4 -5/-5/-5
f -5/-5/-5 -4/-4/-4 -2/-2/-2
f -1/-1/-1 -5/-5/-5 -2/-2/-2

