# Mesh "tractor_windows_sides" exported with UABE; 36 vertices, 84 indices, 384 bits per vertex
g tractor_windows_sides
# SubMesh 0
# Vertices
v 1.269962 0.718671 0.840549
vt 0.93642 0.488353
vn -0 0.97583395 0.21851356
v 0.807913 0.715281 0.855692
vt 0.763445 0.494022
vn -0 0.97583395 0.21851356
v 0.823056 0.718671 0.840549
vt 0.769114 0.488353
vn -0 0.97583395 0.21851356
v 1.283358 0.715461 0.854887
vt 0.941435 0.493721
vn -0 0.97583395 0.21851356
v 1.265423 0.644366 1.172372
vt 0.93472 0.612576
vn -0 0.97583395 0.21851356
v 0.807913 0.57316 1.490354
vt 0.763445 0.731616
vn -0 0.97583395 0.21851356
v 1.216329 0.573271 1.489858
vt 0.916342 0.73143
vn -0 0.97583395 0.21851356
v 1.199906 0.569769 1.505497
vt 0.910194 0.737285
vn -0 0.97583395 0.21851356
v 0.823056 0.569769 1.505497
vt 0.769114 0.737285
vn -0 0.97583395 0.21851356
v 0.823056 -0.57123 1.505824
vt 0.769114 0.737408
vn -0 -0.97583395 0.21851356
v 1.199906 -0.57123 1.505824
vt 0.910194 0.737408
vn -0 -0.97583395 0.21851356
v 0.807913 -0.574621 1.490681
vt 0.763445 0.731739
vn -0 -0.97583395 0.21851356
v 1.216329 -0.574732 1.490185
vt 0.916342 0.731553
vn -0 -0.97583395 0.21851356
v 0.807913 -0.716742 0.856019
vt 0.763445 0.494145
vn -0 -0.97583395 0.21851356
v 1.265423 -0.645827 1.1727
vt 0.93472 0.612698
vn -0 -0.97583395 0.21851356
v 1.283358 -0.716922 0.855214
vt 0.941435 0.493843
vn -0 -0.97583395 0.21851356
v 0.823056 -0.720133 0.840876
vt 0.769114 0.488476
vn -0 -0.97583395 0.21851356
v 1.269962 -0.720133 0.840876
vt 0.93642 0.488476
vn -0 -0.97583395 0.21851356
v 0.823056 0.569769 1.505497
vt 0.769114 0.737285
vn -0 -0.97583395 -0.21851356
v 1.199906 0.569769 1.505497
vt 0.910194 0.737285
vn -0 -0.97583395 -0.21851356
v 0.807913 0.57316 1.490354
vt 0.763445 0.731616
vn -0 -0.97583395 -0.21851356
v 1.216329 0.573271 1.489858
vt 0.916342 0.73143
vn -0 -0.97583395 -0.21851356
v 0.807913 0.715281 0.855692
vt 0.763445 0.494022
vn -0 -0.97583395 -0.21851356
v 1.265423 0.644366 1.172372
vt 0.93472 0.612576
vn -0 -0.97583395 -0.21851356
v 1.283358 0.715461 0.854887
vt 0.941435 0.493721
vn -0 -0.97583395 -0.21851356
v 0.823056 0.718671 0.840549
vt 0.769114 0.488353
vn -0 -0.97583395 -0.21851356
v 1.269962 0.718671 0.840549
vt 0.93642 0.488353
vn -0 -0.97583395 -0.21851356
v 1.269962 -0.720133 0.840876
vt 0.93642 0.488476
vn -0 0.97583395 -0.21851356
v 0.807913 -0.716742 0.856019
vt 0.763445 0.494145
vn -0 0.97583395 -0.21851356
v 0.823056 -0.720133 0.840876
vt 0.769114 0.488476
vn -0 0.97583395 -0.21851356
v 1.283358 -0.716922 0.855214
vt 0.941435 0.493843
vn -0 0.97583395 -0.21851356
v 1.265423 -0.645827 1.1727
vt 0.93472 0.612698
vn -0 0.97583395 -0.21851356
v 0.807913 -0.574621 1.490681
vt 0.763445 0.731739
vn -0 0.97583395 -0.21851356
v 1.216329 -0.574732 1.490185
vt 0.916342 0.731553
vn -0 0.97583395 -0.21851356
v 1.199906 -0.57123 1.505824
vt 0.910194 0.737408
vn -0 0.97583395 -0.21851356
v 0.823056 -0.57123 1.505824
vt 0.769114 0.737408
vn -0 0.97583395 -0.21851356
# Faces (%u to %u)
g %s_%u
f -34/-34/-34 -35/-35/-35 -36/-36/-36
f -36/-36/-36 -35/-35/-35 -33/-33/-33
f -33/-33/-33 -35/-35/-35 -32/-32/-32
f -31/-31/-31 -32/-32/-32 -35/-35/-35
f -31/-31/-31 -30/-30/-30 -32/-32/-32
f -31/-31/-31 -29/-29/-29 -30/-30/-30
f -31/-31/-31 -28/-28/-28 -29/-29/-29
f -25/-25/-25 -26/-26/-26 -27/-27/-27
f -24/-24/-24 -26/-26/-26 -25/-25/-25
f -23/-23/-23 -24/-24/-24 -25/-25/-25
f -22/-22/-22 -24/-24/-24 -23/-23/-23
f -21/-21/-21 -22/-22/-22 -23/-23/-23
f -20/-20/-20 -21/-21/-21 -23/-23/-23
f -19/-19/-19 -21/-21/-21 -20/-20/-20
f -16/-16/-16 -17/-17/-17 -18/-18/-18
f -15/-15/-15 -17/-17/-17 -16/-16/-16
f -14/-14/-14 -15/-15/-15 -16/-16/-16
f -13/-13/-13 -15/-15/-15 -14/-14/-14
f -12/-12/-12 -13/-13/-13 -14/-14/-14
f -11/-11/-11 -12/-12/-12 -14/-14/-14
f -10/-10/-10 -12/-12/-12 -11/-11/-11
f -7/-7/-7 -8/-8/-8 -9/-9/-9
f -9/-9/-9 -8/-8/-8 -6/-6/-6
f -6/-6/-6 -8/-8/-8 -5/-5/-5
f -8/-8/-8 -4/-4/-4 -5/-5/-5
f -5/-5/-5 -4/-4/-4 -3/-3/-3
f -3/-3/-3 -4/-4/-4 -2/-2/-2
f -2/-2/-2 -4/-4/-4 -1/-1/-1

