# Mesh "tractor_lever_throttle" exported with UABE; 110 vertices, 264 indices, 384 bits per vertex
g tractor_lever_throttle
# SubMesh 0
# Vertices
v 0.003397 0.021444 -0.100973
vt 0.538175 0.712725
vn -0.004669442 -0.96797836 0.25099012
v -0.004786 0.02622 0.09156
vt 0.543945 0.734233
vn -0.9511219 -0.3085157 -0.013611435
v 0.000285 0.022535 0.091657
vt 0.544841 0.734212
vn -9.155687e-05 -0.99998415 0.005646007
v -0.001674 0.025129 -0.101071
vt 0.537279 0.712746
vn -0.9738409 -0.22605658 0.023072604
v -0.001508 0.020904 -0.109809
vt 0.537442 0.71142
vn -0.9837637 -0.13480437 0.11847647
v 0.003521 0.018309 -0.107111
vt 0.538308 0.71178
vn -0.010285148 -0.709309 0.7048226
v -0.001462 0.011971 -0.114161
vt 0.538276 0.710179
vn -0.97724503 -0.037965488 0.2086881
v 0.003549 0.011986 -0.110394
vt 0.538891 0.710878
vn -0.016236197 -0.25169158 0.9676713
v -0.001462 -0.041981 -0.114161
vt 0.544255 0.705614
vn -0.9563703 0 0.29215726
v 0.003549 -0.041966 -0.110394
vt 0.54487 0.706313
vn -0.016144652 0 0.9998697
v -0.001674 0.025129 -0.101071
vt 0.558497 0.679943
vn -0.9738409 -0.22605658 0.023072604
v -0.002849 0.032182 0.091566
vt 0.566052 0.707271
vn -0.5873765 0.80919147 -0.014069445
v -0.004786 0.02622 0.09156
vt 0.566956 0.706995
vn -0.9511219 -0.3085157 -0.013611435
v 0.000264 0.031091 -0.101064
vt 0.557594 0.680219
vn -0.54885393 0.8147356 -0.18699
v 0.000497 0.025102 -0.114011
vt 0.557826 0.678088
vn -0.52065897 0.59927666 -0.60809666
v -0.001508 0.020904 -0.109809
vt 0.558678 0.678495
vn -0.9837637 -0.13480437 0.11847647
v 0.000571 0.011946 -0.12009
vt 0.559338 0.676544
vn -0.5382407 0.17557828 -0.8242992
v -0.001462 0.011971 -0.114161
vt 0.559695 0.677415
vn -0.97724503 -0.037965488 0.2086881
v 0.000571 -0.042006 -0.12009
vt 0.566648 0.673701
vn -0.573876 0 -0.8189422
v -0.001462 -0.041981 -0.114161
vt 0.567005 0.674572
vn -0.9563703 0 0.29215726
v 0.000264 0.031091 -0.101064
vt 0.597966 0.725956
vn -0.54885393 0.8147356 -0.18699
v 0.00342 0.032182 0.091667
vt 0.597039 0.75482
vn 0.5875276 0.80918944 0.0048830924
v -0.002849 0.032182 0.091566
vt 0.597983 0.754824
vn -0.5873765 0.80919147 -0.014069445
v 0.006532 0.031091 -0.100963
vt 0.597022 0.725952
vn 0.5540681 0.81524754 -0.16846354
v 0.006765 0.025102 -0.11391
vt 0.596979 0.724106
vn 0.5413115 0.5987174 -0.5903552
v 0.000497 0.025102 -0.114011
vt 0.597923 0.72411
vn -0.52065897 0.59927666 -0.60809666
v 0.000285 0.022535 0.091657
vt 0.597727 0.681077
vn -9.155687e-05 -0.99998415 0.005646007
v 0.008468 0.025129 -0.100907
vt 0.596746 0.710094
vn 0.97258806 -0.22547637 0.056857396
v 0.003397 0.021444 -0.100973
vt 0.59764 0.71008
vn -0.004669442 -0.96797836 0.25099012
v 0.005356 0.02622 0.091723
vt 0.596833 0.68109
vn 0.9510652 -0.30851707 0.017090669
v 0.003521 0.018309 -0.107111
vt 0.597772 0.710982
vn -0.010285148 -0.709309 0.7048226
v 0.008634 0.020904 -0.109645
vt 0.596924 0.71138
vn 0.97925115 -0.13535011 0.15082304
v 0.006532 0.031091 -0.100963
vt 0.576465 0.680489
vn 0.5540681 0.81524754 -0.16846354
v 0.005356 0.02622 0.091723
vt 0.567036 0.705619
vn 0.9510652 -0.30851707 0.017090669
v 0.00342 0.032182 0.091667
vt 0.567939 0.705878
vn 0.5875276 0.80918944 0.0048830924
v 0.008468 0.025129 -0.100907
vt 0.575562 0.68023
vn 0.97258806 -0.22547637 0.056857396
v 0.008634 0.020904 -0.109645
vt 0.575378 0.678834
vn 0.97925115 -0.13535011 0.15082304
v 0.006765 0.025102 -0.11391
vt 0.576231 0.678437
vn 0.5413115 0.5987174 -0.5903552
v 0.00868 0.011971 -0.113997
vt 0.574358 0.677737
vn 0.97003627 -0.04025414 0.23960216
v 0.006839 0.011946 -0.119989
vt 0.574713 0.676865
vn 0.56408185 0.17490412 -0.80698216
v 0.00868 -0.041981 -0.113997
vt 0.567005 0.674573
vn 0.9464257 0 0.32292187
v 0.006839 -0.042006 -0.119989
vt 0.56736 0.673701
vn 0.600039 0 -0.7999707
v 0.013974 0.02803 0.10916
vt 0.012344 0.322315
vn 0.9937215 3.0518764e-05 0.111881785
v 0.006872 0.021084 0.11614
vt 0.012739 0.319185
vn 0.48265955 -0.49105233 0.7251948
v 0.009767 0.028072 0.116157
vt 0.011013 0.321019
vn 0.6876302 0.003235045 0.72605395
v 0.009881 0.018148 0.109136
vt 0.014784 0.319722
vn 0.7019944 -0.7036425 0.109959394
v -0.000115 0.01819 0.116039
vt 0.012739 0.316592
vn -0.011597177 -0.69573903 0.718201
v -1e-06 0.014055 0.108994
vt 0.014785 0.316054
vn -0.0015869907 -0.9950126 0.09973625
v -0.007102 0.021084 0.115914
vt 0.011015 0.314757
vn -0.50583404 -0.49106252 0.70921755
v -0.009882 0.018148 0.108816
vt 0.012346 0.313459
vn -0.70517623 -0.7036503 0.0871933
v -0.00018 0.02809 0.120091
vt 0.009317 0.317888
vn -0.016144507 0.0042116106 0.99986076
v -0.009995 0.028072 0.115838
vt 0.008575 0.314757
vn -0.71072555 0.0032350097 0.703462
v -0.007101 0.03506 0.115855
vt 0.006849 0.31659
vn -0.5060106 0.49783146 0.70435584
v 0.006873 0.03506 0.116081
vt 0.008573 0.321018
vn 0.4829929 0.4978251 0.72033876
v -0.000113 0.037955 0.115956
vt 0.006848 0.319184
vn -0.011475116 0.7027593 0.7113351
v 0.009882 0.037913 0.109052
vt 0.008893 0.322314
vn 0.702433 0.7040505 0.10440664
v 0.008158 0.027989 0.090281
vt 0.010011 0.312607
vn 0.80671144 -0.0022278945 -0.5909414
v 0.009881 0.018148 0.109136
vt 0.008573 0.305569
vn 0.7019944 -0.7036425 0.109959394
v 0.013974 0.02803 0.10916
vt 0.006308 0.307039
vn 0.9937215 3.0518764e-05 0.111881785
v 0.005857 0.022434 0.090267
vt 0.011284 0.311781
vn 0.5731265 -0.5657103 -0.5928727
v -1e-06 0.014055 0.108994
vt 0.012085 0.304508
vn -0.0015869907 -0.9950126 0.09973625
v 0.000303 0.020133 0.090187
vt 0.013258 0.311184
vn 0.009705069 -0.7990201 -0.601226
v -0.009882 0.018148 0.108816
vt 0.014785 0.304477
vn -0.70517623 -0.7036503 0.0871933
v -0.005251 0.022434 0.090088
vt 0.014776 0.311167
vn -0.553656 -0.5657113 -0.61109394
v 0.00037 0.027971 0.086061
vt 0.012868 0.313459
vn 0.016144507 -0.0042116106 -0.99986076
v -0.009882 0.018148 0.108816
vt 0.021 0.321789
vn -0.70517623 -0.7036503 0.0871933
v -0.009995 0.028072 0.115838
vt 0.018551 0.324547
vn -0.71072555 0.0032350097 0.703462
v -0.007102 0.021084 0.115914
vt 0.021037 0.323807
vn -0.50583404 -0.49106252 0.70921755
v -0.013974 0.02803 0.108709
vt 0.017485 0.322837
vn -0.9968176 3.0519182e-05 0.07971611
v -0.005251 0.022434 0.090088
vt 0.018297 0.315574
vn -0.553656 -0.5657113 -0.61109394
v -0.007551 0.027989 0.090027
vt 0.016322 0.316163
vn -0.7871893 -0.0022279231 -0.61670744
v -0.009881 0.037913 0.108733
vt 0.014785 0.322859
vn -0.7054327 0.7040593 0.081640236
v -0.00525 0.033543 0.090041
vt 0.014804 0.316176
vn -0.5538652 0.56149495 -0.6147818
v 0.00037 0.027971 0.086061
vt 0.01672 0.313891
vn 0.016144507 -0.0042116106 -0.99986076
v -0.013974 0.02803 0.108709
vt 0.02254 0.312388
vn -0.9968176 3.0519182e-05 0.07971611
v -0.007101 0.03506 0.115855
vt 0.019063 0.31217
vn -0.5060106 0.49783146 0.70435584
v -0.009995 0.028072 0.115838
vt 0.020234 0.313826
vn -0.71072555 0.0032350097 0.703462
v -0.009881 0.037913 0.108733
vt 0.020886 0.310046
vn -0.7054327 0.7040593 0.081640236
v -0.000113 0.037955 0.115956
vt 0.016807 0.310892
vn -0.011475116 0.7027593 0.7113351
v 1e-06 0.042006 0.108875
vt 0.017694 0.308238
vn -0.0014649072 0.99577063 0.09186189
v -0.00525 0.033543 0.090041
vt 0.022536 0.305493
vn -0.5538652 0.56149495 -0.6147818
v 0.000304 0.035844 0.090121
vt 0.020742 0.304477
vn 0.009796487 0.7950719 -0.6064361
v 0.006873 0.03506 0.116081
vt 0.014785 0.310739
vn 0.4829929 0.4978251 0.72033876
v 0.009882 0.037913 0.109052
vt 0.014835 0.308023
vn 0.702433 0.7040505 0.10440664
v -0.00018 0.02809 0.120091
vt 0.016598 0.313891
vn -0.016144507 0.0042116106 0.99986076
v 0.000304 0.035844 0.090121
vt 0.026237 0.317239
vn 0.009796487 0.7950719 -0.6064361
v 0.009882 0.037913 0.109052
vt 0.023879 0.32195
vn 0.702433 0.7040505 0.10440664
v 1e-06 0.042006 0.108875
vt 0.027524 0.321539
vn -0.0014649072 0.99577063 0.09186189
v 0.005858 0.033543 0.09022
vt 0.024188 0.31747
vn 0.57345366 0.5614902 -0.5965566
v 0.00037 0.027971 0.086061
vt 0.024894 0.314526
vn 0.016144507 -0.0042116106 -0.99986076
v -0.00525 0.033543 0.090041
vt 0.027537 0.315757
vn -0.5538652 0.56149495 -0.6147818
v -0.007551 0.027989 0.090027
vt 0.027327 0.313891
vn -0.7871893 -0.0022279231 -0.61670744
v 0.013974 0.02803 0.10916
vt 0.021037 0.319893
vn 0.9937215 3.0518764e-05 0.111881785
v 0.008158 0.027989 0.090281
vt 0.022591 0.316314
vn 0.80671144 -0.0022278945 -0.5909414
v 0.005857 0.022434 0.090267
vt 0.022381 0.314448
vn 0.5731265 -0.5657103 -0.5928727
v 0.00037 0.027971 0.086061
vt 0.02254 0.305506
vn 0.016144507 -0.0042116106 -0.99986076
v -0.005251 0.022434 0.090088
vt 0.024225 0.306539
vn -0.553656 -0.5657113 -0.61109394
v 0.000303 0.020133 0.090187
vt 0.024228 0.304477
vn 0.009705069 -0.7990201 -0.601226
v 0.008634 0.020904 -0.109645
vt 0.553686 0.740203
vn 0.97925115 -0.13535011 0.15082304
v 0.003549 0.011986 -0.110394
vt 0.553057 0.738824
vn -0.016236197 -0.25169158 0.9676713
v 0.003521 0.018309 -0.107111
vt 0.552818 0.739829
vn -0.010285148 -0.709309 0.7048226
v 0.00868 0.011971 -0.113997
vt 0.554001 0.738788
vn 0.97003627 -0.04025414 0.23960216
v 0.003549 -0.041966 -0.110394
vt 0.552819 0.730754
vn -0.016144652 0 0.9998697
v 0.00868 -0.041981 -0.113997
vt 0.553763 0.730718
vn 0.9464257 0 0.32292187
v 0.000497 0.025102 -0.114011
vt 0.555134 0.740602
vn -0.52065897 0.59927666 -0.60809666
v 0.006839 0.011946 -0.119989
vt 0.554116 0.738757
vn 0.56408185 0.17490412 -0.80698216
v 0.006765 0.025102 -0.11391
vt 0.554194 0.740578
vn 0.5413115 0.5987174 -0.5903552
v 0.000571 0.011946 -0.12009
vt 0.555056 0.738781
vn -0.5382407 0.17557828 -0.8242992
v 0.006839 -0.042006 -0.119989
vt 0.554189 0.730718
vn 0.600039 0 -0.7999707
v 0.000571 -0.042006 -0.12009
vt 0.555129 0.730742
vn -0.573876 0 -0.8189422
# Faces (%u to %u)
g %s_%u
f -108/-108/-108 -109/-109/-109 -110/-110/-110
f -109/-109/-109 -107/-107/-107 -110/-110/-110
f -107/-107/-107 -106/-106/-106 -110/-110/-110
f -106/-106/-106 -105/-105/-105 -110/-110/-110
f -106/-106/-106 -104/-104/-104 -105/-105/-105
f -104/-104/-104 -103/-103/-103 -105/-105/-105
f -104/-104/-104 -102/-102/-102 -103/-103/-103
f -102/-102/-102 -101/-101/-101 -103/-103/-103
f -98/-98/-98 -99/-99/-99 -100/-100/-100
f -99/-99/-99 -97/-97/-97 -100/-100/-100
f -97/-97/-97 -96/-96/-96 -100/-100/-100
f -96/-96/-96 -95/-95/-95 -100/-100/-100
f -96/-96/-96 -94/-94/-94 -95/-95/-95
f -94/-94/-94 -93/-93/-93 -95/-95/-95
f -94/-94/-94 -92/-92/-92 -93/-93/-93
f -92/-92/-92 -91/-91/-91 -93/-93/-93
f -88/-88/-88 -89/-89/-89 -90/-90/-90
f -89/-89/-89 -87/-87/-87 -90/-90/-90
f -87/-87/-87 -86/-86/-86 -90/-90/-90
f -86/-86/-86 -85/-85/-85 -90/-90/-90
f -82/-82/-82 -83/-83/-83 -84/-84/-84
f -83/-83/-83 -81/-81/-81 -84/-84/-84
f -82/-82/-82 -80/-80/-80 -83/-83/-83
f -80/-80/-80 -79/-79/-79 -83/-83/-83
f -76/-76/-76 -77/-77/-77 -78/-78/-78
f -77/-77/-77 -75/-75/-75 -78/-78/-78
f -75/-75/-75 -74/-74/-74 -78/-78/-78
f -74/-74/-74 -73/-73/-73 -78/-78/-78
f -74/-74/-74 -72/-72/-72 -73/-73/-73
f -72/-72/-72 -71/-71/-71 -73/-73/-73
f -72/-72/-72 -70/-70/-70 -71/-71/-71
f -70/-70/-70 -69/-69/-69 -71/-71/-71
f -66/-66/-66 -67/-67/-67 -68/-68/-68
f -67/-67/-67 -65/-65/-65 -68/-68/-68
f -67/-67/-67 -64/-64/-64 -65/-65/-65
f -64/-64/-64 -63/-63/-63 -65/-65/-65
f -64/-64/-64 -62/-62/-62 -63/-63/-63
f -62/-62/-62 -61/-61/-61 -63/-63/-63
f -60/-60/-60 -67/-67/-67 -66/-66/-66
f -60/-60/-60 -64/-64/-64 -67/-67/-67
f -60/-60/-60 -62/-62/-62 -64/-64/-64
f -60/-60/-60 -59/-59/-59 -62/-62/-62
f -60/-60/-60 -58/-58/-58 -59/-59/-59
f -60/-60/-60 -66/-66/-66 -57/-57/-57
f -60/-60/-60 -57/-57/-57 -56/-56/-56
f -57/-57/-57 -66/-66/-66 -55/-55/-55
f -66/-66/-66 -68/-68/-68 -55/-55/-55
f -52/-52/-52 -53/-53/-53 -54/-54/-54
f -53/-53/-53 -51/-51/-51 -54/-54/-54
f -53/-53/-53 -50/-50/-50 -51/-51/-51
f -50/-50/-50 -49/-49/-49 -51/-51/-51
f -50/-50/-50 -48/-48/-48 -49/-49/-49
f -48/-48/-48 -47/-47/-47 -49/-49/-49
f -51/-51/-51 -49/-49/-49 -46/-46/-46
f -43/-43/-43 -44/-44/-44 -45/-45/-45
f -44/-44/-44 -42/-42/-42 -45/-45/-45
f -45/-45/-45 -42/-42/-42 -41/-41/-41
f -42/-42/-42 -40/-40/-40 -41/-41/-41
f -42/-42/-42 -39/-39/-39 -40/-40/-40
f -39/-39/-39 -38/-38/-38 -40/-40/-40
f -41/-41/-41 -40/-40/-40 -37/-37/-37
f -34/-34/-34 -35/-35/-35 -36/-36/-36
f -35/-35/-35 -33/-33/-33 -36/-36/-36
f -35/-35/-35 -32/-32/-32 -33/-33/-33
f -32/-32/-32 -31/-31/-31 -33/-33/-33
f -33/-33/-33 -31/-31/-31 -30/-30/-30
f -31/-31/-31 -29/-29/-29 -30/-30/-30
f -32/-32/-32 -28/-28/-28 -31/-31/-31
f -28/-28/-28 -27/-27/-27 -31/-31/-31
f -26/-26/-26 -32/-32/-32 -35/-35/-35
f -23/-23/-23 -24/-24/-24 -25/-25/-25
f -24/-24/-24 -22/-22/-22 -25/-25/-25
f -25/-25/-25 -22/-22/-22 -21/-21/-21
f -20/-20/-20 -25/-25/-25 -21/-21/-21
f -19/-19/-19 -20/-20/-20 -21/-21/-21
f -24/-24/-24 -18/-18/-18 -22/-22/-22
f -18/-18/-18 -17/-17/-17 -22/-22/-22
f -22/-22/-22 -17/-17/-17 -21/-21/-21
f -17/-17/-17 -16/-16/-16 -21/-21/-21
f -13/-13/-13 -14/-14/-14 -15/-15/-15
f -10/-10/-10 -11/-11/-11 -12/-12/-12
f -11/-11/-11 -9/-9/-9 -12/-12/-12
f -11/-11/-11 -8/-8/-8 -9/-9/-9
f -8/-8/-8 -7/-7/-7 -9/-9/-9
f -4/-4/-4 -5/-5/-5 -6/-6/-6
f -5/-5/-5 -3/-3/-3 -6/-6/-6
f -5/-5/-5 -2/-2/-2 -3/-3/-3
f -2/-2/-2 -1/-1/-1 -3/-3/-3

