# Mesh "tractor_gauge_glass" exported with UABE; 32 vertices, 84 indices, 384 bits per vertex
g tractor_gauge_glass
# SubMesh 0
# Vertices
v 0.091738 -0.053708 0.842141
vt 0.325177 0.458209
vn 0.5728497 -0.00030519432 0.8196604
v 0.071116 -0.053708 0.856553
vt 0.309643 0.468127
vn 0.5728497 -0.00030519432 0.8196604
v 0.081427 -0.051205 0.849348
vt 0.318332 0.464367
vn 0.5728497 -0.00030519432 0.8196604
v 0.062374 -0.060833 0.862661
vt 0.300215 0.467693
vn 0.5728497 -0.00030519432 0.8196604
v 0.100477 -0.060833 0.83603
vt 0.328654 0.449574
vn 0.5728497 -0.00030519432 0.8196604
v 0.056532 -0.071497 0.86674
vt 0.291478 0.463804
vn 0.5728497 -0.00030519432 0.8196604
v 0.106316 -0.071497 0.831945
vt 0.328742 0.440456
vn 0.5728497 -0.00030519432 0.8196604
v 0.054479 -0.084076 0.86817
vt 0.284648 0.457464
vn 0.5728497 -0.00030519432 0.8196604
v 0.108364 -0.084076 0.830509
vt 0.325029 0.431894
vn 0.5728497 -0.00030519432 0.8196604
v 0.056527 -0.096656 0.866733
vt 0.28089 0.44904
vn 0.5728497 -0.00030519432 0.8196604
v 0.106311 -0.096656 0.831939
vt 0.318149 0.425569
vn 0.5728497 -0.00030519432 0.8196604
v 0.062366 -0.10732 0.862648
vt 0.280914 0.439898
vn 0.5728497 -0.00030519432 0.8196604
v 0.100469 -0.10732 0.836018
vt 0.309377 0.421696
vn 0.5728497 -0.00030519432 0.8196604
v 0.071105 -0.114445 0.856538
vt 0.284534 0.431563
vn 0.5728497 -0.00030519432 0.8196604
v 0.091726 -0.114445 0.842125
vt 0.299876 0.42135
vn 0.5728497 -0.00030519432 0.8196604
v 0.081415 -0.116947 0.849331
vt 0.291219 0.425278
vn 0.5728497 -0.00030519432 0.8196604
v 0.091769 0.111376 0.842183
vt 0.311039 0.331083
vn 0.5728497 -0.00030519432 0.8196604
v 0.071145 0.111376 0.856598
vt 0.314381 0.348745
vn 0.5728497 -0.00030519432 0.8196604
v 0.081458 0.113878 0.849391
vt 0.314524 0.33954
vn 0.5728497 -0.00030519432 0.8196604
v 0.062401 0.104249 0.862706
vt 0.31041 0.357146
vn 0.5728497 -0.00030519432 0.8196604
v 0.10051 0.104249 0.836071
vt 0.304375 0.324816
vn 0.5728497 -0.00030519432 0.8196604
v 0.056558 0.093583 0.866786
vt 0.303304 0.363403
vn 0.5728497 -0.00030519432 0.8196604
v 0.10635 0.093583 0.831986
vt 0.295604 0.321649
vn 0.5728497 -0.00030519432 0.8196604
v 0.054504 0.081001 0.868216
vt 0.29451 0.367354
vn 0.5728497 -0.00030519432 0.8196604
v 0.108399 0.081001 0.830549
vt 0.286045 0.321468
vn 0.5728497 -0.00030519432 0.8196604
v 0.056553 0.06842 0.866779
vt 0.285079 0.367705
vn 0.5728497 -0.00030519432 0.8196604
v 0.106345 0.06842 0.831979
vt 0.277084 0.324965
vn 0.5728497 -0.00030519432 0.8196604
v 0.062393 0.057754 0.862694
vt 0.27646 0.363909
vn 0.5728497 -0.00030519432 0.8196604
v 0.100502 0.057754 0.836059
vt 0.270117 0.331267
vn 0.5728497 -0.00030519432 0.8196604
v 0.071134 0.050627 0.856582
vt 0.269962 0.35725
vn 0.5728497 -0.00030519432 0.8196604
v 0.091758 0.050627 0.842167
vt 0.266432 0.339684
vn 0.5728497 -0.00030519432 0.8196604
v 0.081446 0.048125 0.849374
vt 0.266243 0.34895
vn 0.5728497 -0.00030519432 0.8196604
# Faces (%u to %u)
g %s_%u
f -30/-30/-30 -31/-31/-31 -32/-32/-32
f -31/-31/-31 -29/-29/-29 -32/-32/-32
f -32/-32/-32 -29/-29/-29 -28/-28/-28
f -29/-29/-29 -27/-27/-27 -28/-28/-28
f -27/-27/-27 -26/-26/-26 -28/-28/-28
f -25/-25/-25 -26/-26/-26 -27/-27/-27
f -24/-24/-24 -26/-26/-26 -25/-25/-25
f -23/-23/-23 -24/-24/-24 -25/-25/-25
f -22/-22/-22 -24/-24/-24 -23/-23/-23
f -21/-21/-21 -22/-22/-22 -23/-23/-23
f -20/-20/-20 -22/-22/-22 -21/-21/-21
f -19/-19/-19 -20/-20/-20 -21/-21/-21
f -18/-18/-18 -20/-20/-20 -19/-19/-19
f -17/-17/-17 -18/-18/-18 -19/-19/-19
f -14/-14/-14 -15/-15/-15 -16/-16/-16
f -15/-15/-15 -13/-13/-13 -16/-16/-16
f -13/-13/-13 -12/-12/-12 -16/-16/-16
f -11/-11/-11 -12/-12/-12 -13/-13/-13
f -10/-10/-10 -12/-12/-12 -11/-11/-11
f -9/-9/-9 -10/-10/-10 -11/-11/-11
f -8/-8/-8 -10/-10/-10 -9/-9/-9
f -7/-7/-7 -8/-8/-8 -9/-9/-9
f -6/-6/-6 -8/-8/-8 -7/-7/-7
f -5/-5/-5 -6/-6/-6 -7/-7/-7
f -4/-4/-4 -6/-6/-6 -5/-5/-5
f -3/-3/-3 -4/-4/-4 -5/-5/-5
f -2/-2/-2 -4/-4/-4 -3/-3/-3
f -1/-1/-1 -2/-2/-2 -3/-3/-3

