# Mesh "tractor_lever_lift" exported with UABE; 94 vertices, 222 indices, 384 bits per vertex
g tractor_lever_lift
# SubMesh 0
# Vertices
v -0.011144 0.03132 0.108457
vt 0.081593 0.344913
vn -0.9977679 0 -0.06677626
v -0.0061 0.036893 0.116717
vt 0.084153 0.347261
vn -0.5725059 0.5284365 0.6268907
v -0.008407 0.031309 0.116555
vt 0.084166 0.345302
vn -0.79123634 -0.00088505185 0.6115098
v -0.00788 0.039217 0.108686
vt 0.081575 0.347684
vn -0.70560145 0.7070969 -0.046266947
v -0.007352 0.03133 0.100796
vt 0.079043 0.345267
vn -0.7026674 0.0008850484 -0.7115179
v -0.005045 0.036915 0.100958
vt 0.079031 0.347226
vn -0.48393974 0.5302371 -0.69616884
v -0.000528 0.039206 0.117093
vt 0.084164 0.348597
vn -0.0443441 0.7477155 0.6625369
v -1e-06 0.042488 0.109218
vt 0.081591 0.349574
vn -9.155824e-05 0.99999917 0.0013428542
v -0.005044 0.025746 0.100942
vt 0.079072 0.343832
vn -0.48384708 -0.5284353 -0.6976017
v -0.007879 0.023422 0.108665
vt 0.081633 0.342884
vn -0.705477 -0.70709455 -0.04815897
v 0.006524 0.033203 0.101906
vt 0.559181 0.729977
vn -0.0016175283 0 0.9999987
v -0.006436 0.029381 0.101885
vt 0.558611 0.73191
vn -0.0016175283 0 0.9999987
v -0.006436 0.033203 0.101885
vt 0.559183 0.731918
vn -0.0016175283 0 0.9999987
v 0.006524 0.029381 0.101906
vt 0.558609 0.72997
vn -0.0016175283 0 0.9999987
v -0.006604 0.029381 0.067536
vt 0.595803 0.732199
vn -0.00030519185 -0.9799405 0.19929026
v 0.006524 0.029381 0.101906
vt 0.593854 0.724106
vn -0 -1 0
v 0.006356 0.029381 0.067557
vt 0.59385 0.732197
vn -0.0003051874 -0.9802009 0.1980056
v -0.006436 0.029381 0.101885
vt 0.595807 0.724109
vn -0 -1 0
v -0.006773 -0.001938 -0.006541
vt 0.595799 0.74029
vn -0.0003051909 -0.98015106 0.198252
v 0.006187 -0.001938 -0.00652
vt 0.593847 0.740288
vn -0.00030518655 -0.9799846 0.1990732
v -0.006941 -0.001938 -0.120346
vt 0.595796 0.748381
vn -0 -1 0
v 0.006019 -0.001938 -0.120325
vt 0.593843 0.748378
vn -0 -1 0
v 0.006356 0.033203 0.067557
vt 0.573815 0.744623
vn 0.0003051874 0.9802009 -0.1980056
v -0.006436 0.033203 0.101885
vt 0.57571 0.752582
vn -0 1 0
v -0.006604 0.033203 0.067536
vt 0.575701 0.744535
vn 0.00030519185 0.9799405 -0.19929026
v 0.006524 0.033203 0.101906
vt 0.573824 0.752669
vn -0 1 0
v 0.006187 0.001883 -0.00652
vt 0.573806 0.736577
vn 0.00030518655 0.9799846 -0.1990732
v -0.006773 0.001883 -0.006541
vt 0.575692 0.736489
vn 0.0003051909 0.98015106 -0.198252
v 0.006019 0.001883 -0.120325
vt 0.573797 0.728531
vn -0 1 0
v -0.006941 0.001883 -0.120346
vt 0.575683 0.728443
vn -0 1 0
v 0.006356 0.029381 0.067557
vt 0.558075 0.746233
vn 0.99999416 0 -0.0034181573
v 0.006524 0.033203 0.101906
vt 0.558609 0.754347
vn 0.9999881 0 -0.0048830523
v 0.006356 0.033203 0.067557
vt 0.558608 0.746221
vn 0.99999297 0 -0.003753865
v 0.006524 0.029381 0.101906
vt 0.558076 0.754359
vn 0.9999881 0 -0.0048830523
v 0.006187 -0.001938 -0.00652
vt 0.558074 0.738108
vn 0.99999845 0 -0.0018006442
v 0.006187 0.001883 -0.00652
vt 0.558607 0.738096
vn 0.9999982 0 -0.001892202
v 0.006019 -0.001938 -0.120325
vt 0.558073 0.729982
vn 0.9999989 0 -0.0014649315
v 0.006019 0.001883 -0.120325
vt 0.558605 0.72997
vn 0.9999989 0 -0.0014649315
v -0.006604 0.033203 0.067536
vt 0.576011 0.74409
vn -0.99999297 0 0.003753865
v -0.006436 0.029381 0.101885
vt 0.576582 0.751868
vn -0.9999881 0 0.0048830523
v -0.006604 0.029381 0.067536
vt 0.576577 0.74406
vn -0.99999416 0 0.0034181573
v -0.006436 0.033203 0.101885
vt 0.576015 0.751899
vn -0.9999881 0 0.0048830523
v -0.006773 0.001883 -0.006541
vt 0.576006 0.736282
vn -0.9999982 0 0.001892202
v -0.006773 -0.001938 -0.006541
vt 0.576572 0.736251
vn -0.99999845 0 0.0018006442
v -0.006941 0.001883 -0.120346
vt 0.576001 0.728473
vn -0.9999989 0 0.0014649315
v -0.006941 -0.001938 -0.120346
vt 0.576567 0.728443
vn -0.9999989 0 0.0014649315
v -0.005045 0.036915 0.100958
vt 0.079029 0.348571
vn -0.48393974 0.5302371 -0.69616884
v -1e-06 0.042488 0.109218
vt 0.075914 0.347501
vn -9.155824e-05 0.99999917 0.0013428542
v -0.00788 0.039217 0.108686
vt 0.076454 0.349567
vn -0.70560145 0.7070969 -0.046266947
v 0.000527 0.039228 0.101334
vt 0.078647 0.34711
vn 0.044192012 0.74952465 -0.6604997
v 0.007879 0.039217 0.109741
vt 0.075915 0.344733
vn 0.70546174 0.7071098 0.04816001
v 0.005044 0.036893 0.117463
vt 0.073723 0.345232
vn 0.48382372 0.5284431 0.697612
v -0.000528 0.039206 0.117093
vt 0.073723 0.34719
vn -0.0443441 0.7477155 0.6625369
v 0.006099 0.036915 0.101703
vt 0.078648 0.345153
vn 0.5723924 0.530245 -0.6254657
v 0.011144 0.03132 0.109949
vt 0.076457 0.342884
vn 0.9977679 0 0.06677626
v 0.008407 0.03133 0.101851
vt 0.079031 0.343846
vn 0.79123634 0.00088505185 -0.6115098
v 0.007879 0.039217 0.109741
vt 0.048226 0.350268
vn 0.70546174 0.7071098 0.04816001
v 0.007352 0.031309 0.11761
vt 0.045636 0.347886
vn 0.7026674 -0.0008850484 0.7115179
v 0.005044 0.036893 0.117463
vt 0.045664 0.349321
vn 0.48382372 0.5284431 0.697612
v 0.011144 0.03132 0.109949
vt 0.048186 0.348239
vn 0.9977679 0 0.06677626
v 0.005045 0.025725 0.117448
vt 0.045623 0.345926
vn 0.48391637 -0.5302449 0.6961791
v 0.00788 0.023422 0.109719
vt 0.048168 0.345468
vn 0.70560145 -0.7070969 0.046266947
v 0.008407 0.03133 0.101851
vt 0.050758 0.347851
vn 0.79123634 0.00088505185 -0.6115098
v 0.0061 0.025746 0.101688
vt 0.050746 0.345892
vn 0.5724853 -0.52844566 -0.6269016
v 1e-06 0.020151 0.109188
vt 0.048184 0.343579
vn 6.103883e-05 -0.99999917 -0.0013428542
v 0.000528 0.023433 0.101312
vt 0.050757 0.344556
vn 0.0443441 -0.7477155 -0.6625369
v 0.00788 0.023422 0.109719
vt 0.053335 0.350262
vn 0.70560145 -0.7070969 0.046266947
v -0.000527 0.023412 0.117072
vt 0.051142 0.347805
vn -0.044191126 -0.7495096 0.6605169
v 0.005045 0.025725 0.117448
vt 0.05076 0.349266
vn 0.48391637 -0.5302449 0.6961791
v 1e-06 0.020151 0.109188
vt 0.053875 0.348196
vn 6.103883e-05 -0.99999917 -0.0013428542
v -0.006099 0.025725 0.116702
vt 0.051141 0.345847
vn -0.57241285 -0.5302357 0.6254547
v -0.007879 0.023422 0.108665
vt 0.053874 0.345428
vn -0.705477 -0.70709455 -0.04815897
v 0.000528 0.023433 0.101312
vt 0.056067 0.347884
vn 0.0443441 -0.7477155 -0.6625369
v -0.005044 0.025746 0.100942
vt 0.056066 0.345927
vn -0.48384708 -0.5284353 -0.6976017
v -0.008407 0.031309 0.116555
vt 0.050758 0.34454
vn -0.79123634 -0.00088505185 0.6115098
v -0.011144 0.03132 0.108457
vt 0.053332 0.343579
vn -0.9977679 0 -0.06677626
v 0.000746 0.031335 0.098059
vt 0.059466 0.346317
vn 0.06677621 0.0013428486 -0.9977671
v -0.005045 0.036915 0.100958
vt 0.060004 0.343861
vn -0.48393974 0.5302371 -0.69616884
v -0.007352 0.03133 0.100796
vt 0.058172 0.343911
vn -0.7026674 0.0008850484 -0.7115179
v 0.000527 0.039228 0.101334
vt 0.061299 0.34521
vn 0.044192012 0.74952465 -0.6604997
v 0.006099 0.036915 0.101703
vt 0.061299 0.347165
vn 0.5723924 0.530245 -0.6254657
v 0.008407 0.03133 0.101851
vt 0.060004 0.348583
vn 0.79123634 0.00088505185 -0.6115098
v 0.0061 0.025746 0.101688
vt 0.058172 0.348632
vn 0.5724853 -0.52844566 -0.6269016
v 0.000528 0.023433 0.101312
vt 0.056877 0.347284
vn 0.0443441 -0.7477155 -0.6625369
v -0.005044 0.025746 0.100942
vt 0.056877 0.345329
vn -0.48384708 -0.5284353 -0.6976017
v -0.008407 0.031309 0.116555
vt 0.070596 0.349822
vn -0.79123634 -0.00088505185 0.6115098
v -0.0061 0.036893 0.116717
vt 0.072427 0.349872
vn -0.5725059 0.5284365 0.6268907
v -0.000746 0.031305 0.120346
vt 0.071133 0.347556
vn -0.06677621 -0.0013428486 0.9977671
v -0.000528 0.039206 0.117093
vt 0.073722 0.348524
vn -0.0443441 0.7477155 0.6625369
v 0.005044 0.036893 0.117463
vt 0.073723 0.346568
vn 0.48382372 0.5284431 0.697612
v 0.007352 0.031309 0.11761
vt 0.072427 0.34515
vn 0.7026674 -0.0008850484 0.7115179
v 0.005045 0.025725 0.117448
vt 0.070596 0.345101
vn 0.48391637 -0.5302449 0.6961791
v -0.000527 0.023412 0.117072
vt 0.0693 0.346449
vn -0.044191126 -0.7495096 0.6605169
v -0.006099 0.025725 0.116702
vt 0.0693 0.348405
vn -0.57241285 -0.5302357 0.6254547
# Faces (%u to %u)
g %s_%u
f -92/-92/-92 -93/-93/-93 -94/-94/-94
f -93/-93/-93 -91/-91/-91 -94/-94/-94
f -94/-94/-94 -91/-91/-91 -90/-90/-90
f -91/-91/-91 -89/-89/-89 -90/-90/-90
f -93/-93/-93 -88/-88/-88 -91/-91/-91
f -88/-88/-88 -87/-87/-87 -91/-91/-91
f -94/-94/-94 -90/-90/-90 -86/-86/-86
f -85/-85/-85 -94/-94/-94 -86/-86/-86
f -82/-82/-82 -83/-83/-83 -84/-84/-84
f -83/-83/-83 -81/-81/-81 -84/-84/-84
f -78/-78/-78 -79/-79/-79 -80/-80/-80
f -79/-79/-79 -77/-77/-77 -80/-80/-80
f -78/-78/-78 -80/-80/-80 -76/-76/-76
f -75/-75/-75 -78/-78/-78 -76/-76/-76
f -75/-75/-75 -76/-76/-76 -74/-74/-74
f -73/-73/-73 -75/-75/-75 -74/-74/-74
f -70/-70/-70 -71/-71/-71 -72/-72/-72
f -71/-71/-71 -69/-69/-69 -72/-72/-72
f -70/-70/-70 -72/-72/-72 -68/-68/-68
f -67/-67/-67 -70/-70/-70 -68/-68/-68
f -67/-67/-67 -68/-68/-68 -66/-66/-66
f -65/-65/-65 -67/-67/-67 -66/-66/-66
f -62/-62/-62 -63/-63/-63 -64/-64/-64
f -63/-63/-63 -61/-61/-61 -64/-64/-64
f -62/-62/-62 -64/-64/-64 -60/-60/-60
f -59/-59/-59 -62/-62/-62 -60/-60/-60
f -59/-59/-59 -60/-60/-60 -58/-58/-58
f -57/-57/-57 -59/-59/-59 -58/-58/-58
f -54/-54/-54 -55/-55/-55 -56/-56/-56
f -55/-55/-55 -53/-53/-53 -56/-56/-56
f -54/-54/-54 -56/-56/-56 -52/-52/-52
f -51/-51/-51 -54/-54/-54 -52/-52/-52
f -51/-51/-51 -52/-52/-52 -50/-50/-50
f -49/-49/-49 -51/-51/-51 -50/-50/-50
f -46/-46/-46 -47/-47/-47 -48/-48/-48
f -47/-47/-47 -45/-45/-45 -48/-48/-48
f -47/-47/-47 -44/-44/-44 -45/-45/-45
f -43/-43/-43 -44/-44/-44 -47/-47/-47
f -42/-42/-42 -43/-43/-43 -47/-47/-47
f -44/-44/-44 -41/-41/-41 -45/-45/-45
f -44/-44/-44 -40/-40/-40 -41/-41/-41
f -40/-40/-40 -39/-39/-39 -41/-41/-41
f -36/-36/-36 -37/-37/-37 -38/-38/-38
f -37/-37/-37 -35/-35/-35 -38/-38/-38
f -37/-37/-37 -34/-34/-34 -35/-35/-35
f -34/-34/-34 -33/-33/-33 -35/-35/-35
f -35/-35/-35 -33/-33/-33 -32/-32/-32
f -33/-33/-33 -31/-31/-31 -32/-32/-32
f -33/-33/-33 -30/-30/-30 -31/-31/-31
f -30/-30/-30 -29/-29/-29 -31/-31/-31
f -26/-26/-26 -27/-27/-27 -28/-28/-28
f -27/-27/-27 -25/-25/-25 -28/-28/-28
f -27/-27/-27 -24/-24/-24 -25/-25/-25
f -24/-24/-24 -23/-23/-23 -25/-25/-25
f -25/-25/-25 -23/-23/-23 -22/-22/-22
f -23/-23/-23 -21/-21/-21 -22/-22/-22
f -24/-24/-24 -20/-20/-20 -23/-23/-23
f -20/-20/-20 -19/-19/-19 -23/-23/-23
f -16/-16/-16 -17/-17/-17 -18/-18/-18
f -17/-17/-17 -15/-15/-15 -18/-18/-18
f -15/-15/-15 -14/-14/-14 -18/-18/-18
f -14/-14/-14 -13/-13/-13 -18/-18/-18
f -13/-13/-13 -12/-12/-12 -18/-18/-18
f -12/-12/-12 -11/-11/-11 -18/-18/-18
f -11/-11/-11 -10/-10/-10 -18/-18/-18
f -10/-10/-10 -16/-16/-16 -18/-18/-18
f -7/-7/-7 -8/-8/-8 -9/-9/-9
f -7/-7/-7 -6/-6/-6 -8/-8/-8
f -7/-7/-7 -5/-5/-5 -6/-6/-6
f -7/-7/-7 -4/-4/-4 -5/-5/-5
f -7/-7/-7 -3/-3/-3 -4/-4/-4
f -7/-7/-7 -2/-2/-2 -3/-3/-3
f -7/-7/-7 -1/-1/-1 -2/-2/-2
f -7/-7/-7 -9/-9/-9 -1/-1/-1

