# Mesh "valmet_lever2" exported with UABE; 40 vertices, 99 indices, 384 bits per vertex
g valmet_lever2
# SubMesh 0
# Vertices
v 0.17982 0.083227 0.773404
vt 0.708794 0.783824
vn -0.6749952 0.29951632 0.6742932
v 0.188671 0.085051 0.778303
vt 0.7122 0.780879
vn 0.024506703 0.9990983 0.034669507
v 0.186271 0.082917 0.779999
vt 0.709347 0.780883
vn -0.747781 0.3132794 0.5853884
v 0.183412 0.086423 0.770864
vt 0.712663 0.783819
vn 0.08591212 0.9888592 0.121558785
v 0.197105 0.086046 0.790234
vt 0.712644 0.769485
vn 0.1214645 0.97760606 0.17185089
v 0.193852 0.083151 0.792534
vt 0.708776 0.769491
vn -0.6314782 0.29432967 0.71735996
v 0.200358 0.083151 0.787935
vt 0.720439 0.783819
vn 0.8869214 0.29432815 -0.35600767
v 0.188671 0.085051 0.778303
vt 0.723856 0.772428
vn 0.024506703 0.9990983 0.034669507
v 0.19107 0.082917 0.776607
vt 0.721003 0.772426
vn 0.8013084 0.31327814 -0.5096683
v 0.197105 0.086046 0.790234
vt 0.724308 0.783822
vn 0.1214645 0.97760606 0.17185089
v 0.183412 0.086423 0.770864
vt 0.724317 0.769488
vn 0.08591212 0.9888592 0.121558785
v 0.187005 0.083227 0.768325
vt 0.720448 0.769485
vn 0.860853 0.29951474 -0.4113673
v 0.181192 0.078055 0.772434
vt 0.720428 0.783813
vn -0.3657407 -0.79782987 0.47927168
v 0.186271 0.082917 0.779999
vt 0.716987 0.786764
vn -0.747781 0.3132794 0.5853884
v 0.187188 0.079462 0.779351
vt 0.71984 0.786766
vn -0.45082706 -0.8061296 0.38328844
v 0.17982 0.083227 0.773404
vt 0.716559 0.783811
vn -0.6749952 0.29951632 0.6742932
v 0.193852 0.083151 0.792534
vt 0.716551 0.798131
vn -0.6314782 0.29432967 0.71735996
v 0.195095 0.078468 0.791656
vt 0.72042 0.798133
vn -0.32670963 -0.78849787 0.52108735
v 0.19107 0.082917 0.776607
vt 0.716107 0.772439
vn 0.8013084 0.31327814 -0.5096683
v 0.199115 0.078468 0.788813
vt 0.712682 0.783811
vn 0.60022473 -0.7884988 -0.13416322
v 0.200358 0.083151 0.787935
vt 0.716551 0.783805
vn 0.8869214 0.29432815 -0.35600767
v 0.190154 0.079462 0.777255
vt 0.713253 0.772443
vn 0.5117395 -0.806124 -0.29713115
v 0.187005 0.083227 0.768325
vt 0.716532 0.769485
vn 0.860853 0.29951474 -0.4113673
v 0.185632 0.078055 0.769295
vt 0.712663 0.769491
vn 0.5738212 -0.7978318 -0.18491559
v 0.190154 0.079462 0.777255
vt 0.731559 0.772448
vn 0.5117395 -0.806124 -0.29713115
v 0.195095 0.078468 0.791656
vt 0.728209 0.7838
vn -0.32670963 -0.78849787 0.52108735
v 0.199115 0.078468 0.788813
vt 0.732078 0.783796
vn 0.60022473 -0.7884988 -0.13416322
v 0.187188 0.079462 0.779351
vt 0.728706 0.77245
vn -0.45082706 -0.8061296 0.38328844
v 0.185632 0.078055 0.769295
vt 0.732064 0.769485
vn 0.5738212 -0.7978318 -0.18491559
v 0.181192 0.078055 0.772434
vt 0.728196 0.769489
vn -0.3657407 -0.79782987 0.47927168
v 0.195095 0.078468 0.791656
vt 0.720135 0.77777
vn -0.32670963 -0.78849787 0.52108735
v 0.199741 0.079891 0.7913
vt 0.724529 0.776084
vn 0.754868 -0.46267483 0.46487224
v 0.199115 0.078468 0.788813
vt 0.723341 0.77334
vn 0.60022473 -0.7884988 -0.13416322
v 0.19723 0.079891 0.793074
vt 0.722987 0.777884
vn 0.18641052 -0.46266916 0.86671126
v 0.200517 0.082815 0.790751
vt 0.72665 0.776969
vn 0.9239248 0.20105757 0.32548252
v 0.196454 0.082815 0.793623
vt 0.724452 0.779707
vn -0.0013733682 0.2010611 0.9795777
v 0.198485 0.084622 0.792187
vt 0.726484 0.779055
vn 0.4554466 0.6143631 0.64430296
v 0.197105 0.086046 0.790234
vt 0.728881 0.780934
vn 0.1214645 0.97760606 0.17185089
v 0.193852 0.083151 0.792534
vt 0.723163 0.782341
vn -0.6314782 0.29432967 0.71735996
v 0.200358 0.083151 0.787935
vt 0.728881 0.77495
vn 0.8869214 0.29432815 -0.35600767
# Faces (%u to %u)
g %s_%u
f -38/-38/-38 -39/-39/-39 -40/-40/-40
f -39/-39/-39 -37/-37/-37 -40/-40/-40
f -36/-36/-36 -39/-39/-39 -38/-38/-38
f -35/-35/-35 -36/-36/-36 -38/-38/-38
f -32/-32/-32 -33/-33/-33 -34/-34/-34
f -33/-33/-33 -31/-31/-31 -34/-34/-34
f -30/-30/-30 -33/-33/-33 -32/-32/-32
f -29/-29/-29 -30/-30/-30 -32/-32/-32
f -26/-26/-26 -27/-27/-27 -28/-28/-28
f -27/-27/-27 -25/-25/-25 -28/-28/-28
f -24/-24/-24 -27/-27/-27 -26/-26/-26
f -23/-23/-23 -24/-24/-24 -26/-26/-26
f -20/-20/-20 -21/-21/-21 -22/-22/-22
f -21/-21/-21 -19/-19/-19 -22/-22/-22
f -22/-22/-22 -19/-19/-19 -18/-18/-18
f -19/-19/-19 -17/-17/-17 -18/-18/-18
f -14/-14/-14 -15/-15/-15 -16/-16/-16
f -15/-15/-15 -13/-13/-13 -16/-16/-16
f -16/-16/-16 -13/-13/-13 -12/-12/-12
f -13/-13/-13 -11/-11/-11 -12/-12/-12
f -8/-8/-8 -9/-9/-9 -10/-10/-10
f -9/-9/-9 -7/-7/-7 -10/-10/-10
f -7/-7/-7 -9/-9/-9 -6/-6/-6
f -6/-6/-6 -9/-9/-9 -8/-8/-8
f -5/-5/-5 -7/-7/-7 -6/-6/-6
f -4/-4/-4 -5/-5/-5 -6/-6/-6
f -5/-5/-5 -4/-4/-4 -3/-3/-3
f -2/-2/-2 -5/-5/-5 -3/-3/-3
f -10/-10/-10 -7/-7/-7 -2/-2/-2
f -7/-7/-7 -5/-5/-5 -2/-2/-2
f -1/-1/-1 -6/-6/-6 -8/-8/-8
f -3/-3/-3 -4/-4/-4 -1/-1/-1
f -4/-4/-4 -6/-6/-6 -1/-1/-1

