# Mesh "valmet_lever3" exported with UABE; 102 vertices, 240 indices, 384 bits per vertex
g valmet_lever3
# SubMesh 0
# Vertices
v 0.143043 0.107985 0.816259
vt 0.902356 0.218121
vn 0.67532533 0.5301157 -0.5127504
v 0.137478 0.107985 0.827998
vt 0.888735 0.210365
vn -0.64011425 0.68323815 0.35133952
v 0.134968 0.107985 0.821927
vt 0.890453 0.218103
vn -0.7097818 0.52566034 0.46892542
v 0.148049 0.107985 0.82058
vt 0.904316 0.210388
vn 0.5434564 0.6804268 -0.49160415
v 0.140492 0.107985 0.828527
vt 0.89135 0.207759
vn -0 1 0
v 0.147521 0.107985 0.823594
vt 0.901709 0.207774
vn -0 1 0
v 0.142508 0.107985 0.831399
vt 0.891356 0.203526
vn -0 1 0
v 0.141252 0.107985 0.833375
vt 0.888747 0.202441
vn -0.41643777 0.630257 0.6552524
v 0.143446 0.107985 0.831563
vt 0.89217 0.202714
vn -0 1 0
v 0.143956 0.107985 0.833849
vt 0.891092 0.200102
vn 0.16883473 0.6302614 0.757803
v 0.149372 0.107985 0.827404
vt 0.900904 0.202727
vn -0 1 0
v 0.151349 0.107985 0.828661
vt 0.901989 0.200118
vn 0.6552524 0.630257 0.41643777
v 0.149536 0.107985 0.826466
vt 0.901716 0.203541
vn -0 1 0
v 0.151822 0.107985 0.825957
vt 0.904328 0.202464
vn 0.757803 0.6302614 -0.16883473
v 0.143043 0.104779 0.816259
vt 0.904328 0.218121
vn 0.5744512 0 0.81853884
v 0.13651 0.102186 0.820844
vt 0.901169 0.227741
vn 0.5744512 0 0.81853884
v 0.134968 0.104779 0.821927
vt 0.904291 0.230024
vn 0.5744512 0 0.81853884
v 0.141501 0.102186 0.817341
vt 0.901192 0.220384
vn 0.5744512 0 0.81853884
v 0.139005 0.101195 0.819093
vt 0.899986 0.224059
vn 0.5744512 0 0.81853884
v 0.139917 0.102014 0.814867
vt 0.904328 0.218153
vn 0.52133393 -0.80690485 -0.27769685
v 0.143043 0.104779 0.816259
vt 0.907675 0.221774
vn 0.67532533 -0.5301157 -0.5127504
v 0.141523 0.104713 0.813741
vt 0.907585 0.218248
vn 0.8179159 -0.3081834 -0.48583594
v 0.141501 0.102186 0.817341
vt 0.904546 0.221683
vn 0.52133393 -0.80690485 -0.27769685
v 0.143043 0.107985 0.816259
vt 0.911543 0.221762
vn 0.67532533 0.5301157 -0.5127504
v 0.141523 0.10805 0.813741
vt 0.911611 0.218236
vn 0.8179159 0.3081834 -0.48583594
v 0.141501 0.110578 0.817341
vt 0.914671 0.221652
vn 0.52133393 0.80690485 -0.27769685
v 0.139917 0.11075 0.814867
vt 0.914868 0.218121
vn 0.52133393 0.80690485 -0.27769685
v 0.148049 0.107985 0.82058
vt 0.911567 0.229577
vn 0.5434564 0.6804268 -0.49160415
v 0.148049 0.104779 0.82058
vt 0.907699 0.229589
vn 0.5434564 -0.6804268 -0.49160415
v 0.151822 0.107985 0.825957
vt 0.911591 0.237495
vn 0.757803 0.6302614 -0.16883473
v 0.151822 0.104779 0.825957
vt 0.907723 0.237507
vn 0.757803 -0.6302614 -0.16883473
v 0.133116 0.104713 0.81964
vt 0.92215 0.218232
vn -0.7349948 -0.30821383 0.6039757
v 0.13651 0.102186 0.820844
vt 0.925189 0.221685
vn -0.4383796 -0.80693096 0.39583564
v 0.134722 0.102014 0.818514
vt 0.925408 0.218153
vn -0.4383796 -0.80693096 0.39583564
v 0.134968 0.104779 0.821927
vt 0.92206 0.221761
vn -0.7097818 -0.52566034 0.46892542
v 0.133116 0.10805 0.81964
vt 0.918125 0.218219
vn -0.7349948 0.30821383 0.6039757
v 0.134968 0.107985 0.821927
vt 0.918193 0.221749
vn -0.7097818 0.52566034 0.46892542
v 0.134722 0.11075 0.818514
vt 0.914868 0.218121
vn -0.4383796 0.80693096 0.39583564
v 0.13651 0.110578 0.820844
vt 0.915064 0.221654
vn -0.43840426 0.8069202 0.39583033
v 0.137478 0.104779 0.827998
vt 0.922036 0.229556
vn -0.64011425 -0.68323815 0.35133952
v 0.137478 0.107985 0.827998
vt 0.918169 0.229544
vn -0.64011425 0.68323815 0.35133952
v 0.141252 0.104779 0.833375
vt 0.922012 0.237477
vn -0.41643777 -0.630257 0.6552524
v 0.141252 0.107985 0.833375
vt 0.918145 0.237464
vn -0.41643777 0.630257 0.6552524
v 0.139917 0.11075 0.814867
vt 0.927375 0.207749
vn 0.52133393 0.80690485 -0.27769685
v 0.139005 0.111569 0.819093
vt 0.923844 0.211572
vn 0.041444913 0.9973941 0.05905442
v 0.137319 0.111781 0.816691
vt 0.927388 0.211578
vn 0.041444913 0.9973941 0.05905442
v 0.141501 0.110578 0.817341
vt 0.923831 0.207894
vn 0.52133393 0.80690485 -0.27769685
v 0.13651 0.110578 0.820844
vt 0.92382 0.215251
vn -0.43840426 0.8069202 0.39583033
v 0.134722 0.11075 0.818514
vt 0.927363 0.215407
vn -0.4383796 0.80693096 0.39583564
v 0.134722 0.102014 0.818514
vt 0.896968 0.230024
vn -0.4383796 -0.80693096 0.39583564
v 0.139005 0.101195 0.819093
vt 0.893448 0.233858
vn 0.041444913 -0.9973941 0.05905442
v 0.137319 0.100983 0.816691
vt 0.896993 0.233853
vn 0.041444913 -0.9973941 0.05905442
v 0.13651 0.102186 0.820844
vt 0.893424 0.23018
vn -0.4383796 -0.80693096 0.39583564
v 0.141501 0.102186 0.817341
vt 0.893435 0.237536
vn 0.52133393 -0.80690485 -0.27769685
v 0.139917 0.102014 0.814867
vt 0.896979 0.237682
vn 0.52133393 -0.80690485 -0.27769685
v 0.141501 0.110578 0.817341
vt 0.895809 0.220404
vn 0.5744656 0 0.8185288
v 0.13651 0.110578 0.820844
vt 0.895786 0.22776
vn 0.5744656 0 0.8185288
v 0.139005 0.111569 0.819093
vt 0.896993 0.224086
vn 0.5744656 0 0.8185288
v 0.143043 0.107985 0.816259
vt 0.892687 0.218121
vn 0.5744656 0 0.8185288
v 0.134968 0.107985 0.821927
vt 0.89265 0.230024
vn 0.5744656 0 0.8185288
v 0.134968 0.104779 0.821927
vt 0.906046 0.20012
vn -0.7097818 -0.52566034 0.46892542
v 0.148049 0.104779 0.82058
vt 0.919909 0.207834
vn 0.5434564 -0.6804268 -0.49160415
v 0.143043 0.104779 0.816259
vt 0.917949 0.200102
vn 0.67532533 -0.5301157 -0.5127504
v 0.137478 0.104779 0.827998
vt 0.904328 0.207857
vn -0.64011425 -0.68323815 0.35133952
v 0.147521 0.104779 0.823594
vt 0.917302 0.210449
vn -0 -1 0
v 0.140492 0.104779 0.828527
vt 0.906943 0.210464
vn -0 -1 0
v 0.141252 0.104779 0.833375
vt 0.904339 0.215782
vn -0.41643777 -0.630257 0.6552524
v 0.142508 0.104779 0.831399
vt 0.906949 0.214697
vn -0 -1 0
v 0.143956 0.104779 0.833849
vt 0.906685 0.218121
vn 0.16883473 -0.6302614 0.757803
v 0.143446 0.104779 0.831563
vt 0.907763 0.215508
vn -0 -1 0
v 0.151349 0.104779 0.828661
vt 0.917582 0.218104
vn 0.6552524 -0.630257 0.41643777
v 0.149372 0.104779 0.827404
vt 0.916497 0.215496
vn -0 -1 0
v 0.151822 0.104779 0.825957
vt 0.919921 0.215759
vn 0.757803 -0.6302614 -0.16883473
v 0.149536 0.104779 0.826466
vt 0.917308 0.214682
vn -0 -1 0
v 0.149536 0.104779 0.826466
vt 0.892637 0.237956
vn -0.97606486 0 0.21747977
v 0.147521 0.107985 0.823594
vt 0.888783 0.233714
vn -0.17258391 0 0.9849948
v 0.149536 0.107985 0.826466
vt 0.88877 0.237944
vn -0.97606486 0 0.21747977
v 0.147521 0.104779 0.823594
vt 0.89265 0.233726
vn -0.17258391 0 0.9849948
v 0.149372 0.104779 0.827404
vt 0.892635 0.238799
vn -0.8439793 0 -0.5363758
v 0.149372 0.107985 0.827404
vt 0.888767 0.238787
vn -0.8439793 0 -0.5363758
v 0.140492 0.104779 0.828527
vt 0.919936 0.20266
vn 0.9849948 0 0.17258391
v 0.142508 0.107985 0.831399
vt 0.923791 0.206901
vn 0.5363758 0 -0.8439793
v 0.140492 0.107985 0.828527
vt 0.923804 0.202672
vn 0.9849948 0 0.17258391
v 0.142508 0.104779 0.831399
vt 0.919923 0.206889
vn 0.5363758 0 -0.8439793
v 0.143446 0.107985 0.831563
vt 0.923788 0.207749
vn -0.21750885 0 -0.9760584
v 0.143446 0.104779 0.831563
vt 0.919921 0.207737
vn -0.21750885 0 -0.9760584
v 0.141252 0.107985 0.833375
vt 0.89265 0.233702
vn -0.41643777 0.630257 0.6552524
v 0.143956 0.104779 0.833849
vt 0.888776 0.231372
vn 0.16883473 -0.6302614 0.757803
v 0.141252 0.104779 0.833375
vt 0.888783 0.233714
vn -0.41643777 -0.630257 0.6552524
v 0.143956 0.107985 0.833849
vt 0.892643 0.23136
vn 0.16883473 0.6302614 0.757803
v 0.151349 0.107985 0.828661
vt 0.89261 0.220463
vn 0.6552524 0.630257 0.41643777
v 0.151349 0.104779 0.828661
vt 0.888742 0.220475
vn 0.6552524 -0.630257 0.41643777
v 0.151822 0.104779 0.825957
vt 0.888735 0.218133
vn 0.757803 -0.6302614 -0.16883473
v 0.151822 0.107985 0.825957
vt 0.892603 0.218121
vn 0.757803 0.6302614 -0.16883473
v 0.149372 0.107985 0.827404
vt 0.897019 0.230024
vn -0.8439793 0 -0.5363758
v 0.143446 0.104779 0.831563
vt 0.90086 0.23877
vn -0.21750885 0 -0.9760584
v 0.149372 0.104779 0.827404
vt 0.900887 0.230036
vn -0.8439793 0 -0.5363758
v 0.143446 0.107985 0.831563
vt 0.896993 0.238758
vn -0.21750885 0 -0.9760584
v 0.140492 0.107985 0.828527
vt 0.923788 0.218121
vn 0.9849948 0 0.17258391
v 0.147521 0.104779 0.823594
vt 0.919953 0.207749
vn -0.17258391 0 0.9849948
v 0.140492 0.104779 0.828527
vt 0.919921 0.218109
vn 0.9849948 0 0.17258391
v 0.147521 0.107985 0.823594
vt 0.92382 0.207761
vn -0.17258391 0 0.9849948
# Faces (%u to %u)
g %s_%u
f -100/-100/-100 -101/-101/-101 -102/-102/-102
f -101/-101/-101 -99/-99/-99 -102/-102/-102
f -99/-99/-99 -101/-101/-101 -98/-98/-98
f -97/-97/-97 -99/-99/-99 -98/-98/-98
f -98/-98/-98 -101/-101/-101 -96/-96/-96
f -101/-101/-101 -95/-95/-95 -96/-96/-96
f -96/-96/-96 -95/-95/-95 -94/-94/-94
f -95/-95/-95 -93/-93/-93 -94/-94/-94
f -94/-94/-94 -93/-93/-93 -92/-92/-92
f -93/-93/-93 -91/-91/-91 -92/-92/-92
f -92/-92/-92 -91/-91/-91 -90/-90/-90
f -91/-91/-91 -89/-89/-89 -90/-90/-90
f -90/-90/-90 -89/-89/-89 -97/-97/-97
f -89/-89/-89 -99/-99/-99 -97/-97/-97
f -86/-86/-86 -87/-87/-87 -88/-88/-88
f -87/-87/-87 -85/-85/-85 -88/-88/-88
f -84/-84/-84 -85/-85/-85 -87/-87/-87
f -81/-81/-81 -82/-82/-82 -83/-83/-83
f -82/-82/-82 -80/-80/-80 -83/-83/-83
f -79/-79/-79 -82/-82/-82 -81/-81/-81
f -78/-78/-78 -79/-79/-79 -81/-81/-81
f -77/-77/-77 -79/-79/-79 -78/-78/-78
f -76/-76/-76 -77/-77/-77 -78/-78/-78
f -79/-79/-79 -75/-75/-75 -82/-82/-82
f -75/-75/-75 -74/-74/-74 -82/-82/-82
f -75/-75/-75 -73/-73/-73 -74/-74/-74
f -73/-73/-73 -72/-72/-72 -74/-74/-74
f -69/-69/-69 -70/-70/-70 -71/-71/-71
f -70/-70/-70 -68/-68/-68 -71/-71/-71
f -71/-71/-71 -68/-68/-68 -67/-67/-67
f -68/-68/-68 -66/-66/-66 -67/-67/-67
f -67/-67/-67 -66/-66/-66 -65/-65/-65
f -66/-66/-66 -64/-64/-64 -65/-65/-65
f -68/-68/-68 -63/-63/-63 -66/-66/-66
f -63/-63/-63 -62/-62/-62 -66/-66/-66
f -63/-63/-63 -61/-61/-61 -62/-62/-62
f -61/-61/-61 -60/-60/-60 -62/-62/-62
f -57/-57/-57 -58/-58/-58 -59/-59/-59
f -58/-58/-58 -56/-56/-56 -59/-59/-59
f -55/-55/-55 -58/-58/-58 -57/-57/-57
f -54/-54/-54 -55/-55/-55 -57/-57/-57
f -51/-51/-51 -52/-52/-52 -53/-53/-53
f -52/-52/-52 -50/-50/-50 -53/-53/-53
f -49/-49/-49 -52/-52/-52 -51/-51/-51
f -48/-48/-48 -49/-49/-49 -51/-51/-51
f -45/-45/-45 -46/-46/-46 -47/-47/-47
f -46/-46/-46 -44/-44/-44 -47/-47/-47
f -43/-43/-43 -44/-44/-44 -46/-46/-46
f -40/-40/-40 -41/-41/-41 -42/-42/-42
f -41/-41/-41 -39/-39/-39 -42/-42/-42
f -39/-39/-39 -41/-41/-41 -38/-38/-38
f -37/-37/-37 -39/-39/-39 -38/-38/-38
f -36/-36/-36 -39/-39/-39 -37/-37/-37
f -35/-35/-35 -36/-36/-36 -37/-37/-37
f -34/-34/-34 -36/-36/-36 -35/-35/-35
f -33/-33/-33 -34/-34/-34 -35/-35/-35
f -32/-32/-32 -34/-34/-34 -33/-33/-33
f -31/-31/-31 -32/-32/-32 -33/-33/-33
f -30/-30/-30 -32/-32/-32 -31/-31/-31
f -29/-29/-29 -30/-30/-30 -31/-31/-31
f -38/-38/-38 -41/-41/-41 -29/-29/-29
f -41/-41/-41 -30/-30/-30 -29/-29/-29
f -26/-26/-26 -27/-27/-27 -28/-28/-28
f -27/-27/-27 -25/-25/-25 -28/-28/-28
f -28/-28/-28 -24/-24/-24 -26/-26/-26
f -24/-24/-24 -23/-23/-23 -26/-26/-26
f -20/-20/-20 -21/-21/-21 -22/-22/-22
f -21/-21/-21 -19/-19/-19 -22/-22/-22
f -21/-21/-21 -18/-18/-18 -19/-19/-19
f -18/-18/-18 -17/-17/-17 -19/-19/-19
f -14/-14/-14 -15/-15/-15 -16/-16/-16
f -15/-15/-15 -13/-13/-13 -16/-16/-16
f -13/-13/-13 -15/-15/-15 -12/-12/-12
f -15/-15/-15 -11/-11/-11 -12/-12/-12
f -12/-12/-12 -11/-11/-11 -10/-10/-10
f -9/-9/-9 -12/-12/-12 -10/-10/-10
f -6/-6/-6 -7/-7/-7 -8/-8/-8
f -7/-7/-7 -5/-5/-5 -8/-8/-8
f -2/-2/-2 -3/-3/-3 -4/-4/-4
f -3/-3/-3 -1/-1/-1 -4/-4/-4

